<?xml version="1.0" encoding="UTF-8" standalone="no"?>
<!-- Created with Inkscape (http://www.inkscape.org/) -->

<svg
   version="1.1"
   id="svg2"
   xml:space="preserve"
   width="688.23999"
   height="688.44"
   viewBox="0 0 688.23999 688.44"
   sodipodi:docname="ausegl_sort.eps"
   xmlns:inkscape="http://www.inkscape.org/namespaces/inkscape"
   xmlns:sodipodi="http://sodipodi.sourceforge.net/DTD/sodipodi-0.dtd"
   xmlns="http://www.w3.org/2000/svg"
   xmlns:svg="http://www.w3.org/2000/svg"><defs
     id="defs6" /><sodipodi:namedview
     id="namedview4"
     pagecolor="#ffffff"
     bordercolor="#666666"
     borderopacity="1.0"
     inkscape:pageshadow="2"
     inkscape:pageopacity="0.0"
     inkscape:pagecheckerboard="0" /><g
     id="g8"
     inkscape:groupmode="layer"
     inkscape:label="ink_ext_XXXXXX"
     transform="matrix(1.3333333,0,0,-1.3333333,0,688.44)"><g
       id="g10"
       transform="scale(0.1)"><path
         d="m 4377.53,1776.9 -6.76,-17.21 C 4121.47,1085.71 3354.71,576.691 2586.69,575.301 v 0 h -2.11 -1.57 -2.25 v 0 C 1813.01,576.691 1046.41,1085.71 796.961,1759.69 l -6.481,17.21 c -10.429,0 -79.605,0.42 -109.984,0 h -2.109 v 2.25 647.05 2.11 h 2.054 10.848 11.559 1.914 l 0.074,-1.96 c 47.93,-403.42 256.394,-783.42 587.174,-1069.92 324.73,-281.15 737.86,-453.18 1163.54,-485.039 l 27.63,-2.262 v 852.491 1.41 l 1.28,0.57 c 68.24,32.15 134.52,65.27 196.41,98.84 l 3.25,1.82 v -3.37 -951.761 l 28.19,2.262 c 425.84,31.859 838.96,203.889 1163.54,485.039 331.07,286.5 539.19,666.36 586.85,1069.92 l 0.27,1.96 h 1.99 11.56 10.43 2.26 v -2.11 -647.05 -2.25 h -2.26 c -30.17,0.42 -98.98,0 -109.42,0 z M 1606.02,1497.44 c -5.06,-0.57 -8.45,1.39 -9.45,1.96 l -1.11,0.86 0.41,1.12 c 3.67,23.69 59.5,74.17 96.46,107.72 60.9,55.13 109.42,98.42 109.42,140.44 0,3.68 -0.59,7.6 -1.42,11.28 -4.93,22.55 -7.61,45.41 -7.61,67.12 0,40.03 8.32,70.5 15.22,88.81 105.89,279.76 564.42,426.68 792,465.6 l 12.55,1.96 6.05,11.02 c 59.24,107.71 152.44,184.84 249.43,206.7 l 3.68,0.84 -1.13,-3.52 -16.34,-44.98 h 0.27 c -7.05,-13.81 -13.53,-38.5 -13.53,-61.47 0,-10.72 1.67,-19.75 4.5,-27.5 7.62,-19.32 24.26,-30.46 45.96,-30.46 0,0 1.42,0 1.13,0 l 27.63,2.4 c 324.89,38.63 678.51,-35.26 969.25,-202.47 l 19.74,-11.29 14.11,17.76 c 44.83,57.68 142.67,69.52 193.45,67.27 l 4.78,-0.15 -3.39,-3.24 c -29.03,-29.75 -51.03,-60.49 -63.16,-88.98 -17.47,-39.47 -62.6,-46.24 -64.3,-46.53 l -39.75,-5.64 c 5.07,-8.45 20.85,-33.82 20.85,-33.82 5.65,-9.59 20.87,-39.78 20.87,-64.88 0,-5.91 -0.84,-11.26 -2.24,-15.79 -10.72,-29.88 -18.33,-63.58 -22,-100.53 l -0.28,-3.67 -3.11,2.12 c -42.29,32.86 -92.77,85.18 -92.77,145.8 0,1.96 0,4.09 0,6.06 l 1.4,19.75 -19.16,6.19 c -415.12,138.33 -792.43,-25.79 -1138.02,-223.47 -271,-155.12 -724.32,-353.92 -1110.39,-404.39 z m 823.88,1232.05 c -98.57,-35.8 -193.6,-79.53 -282.72,-129.59 -99.54,-56.1 -618.14,-338.95 -1038.46,-393.8 -5.08,-0.85 -8.18,1.13 -9.6,1.84 l -1.13,0.84 0.3,1.27 c 3.95,24.1 59.78,74.16 96.58,107.73 61.06,54.7 109.28,98.41 109.28,140.43 0,3.67 -0.57,7.6 -1.27,11.55 -5.08,22.29 -7.61,44.84 -7.61,66.85 0,39.75 8.31,70.21 15.21,88.81 106.33,280.59 467.57,374.38 706.56,436.27 l 54.58,14.38 c 1.4,2.53 5.35,10.16 5.35,10.16 l 5.37,10.28 0.69,1.55 c 32.29,84.76 111.26,166.95 188.37,195.29 l 3.53,1.55 -0.83,-3.95 c -10.73,-42.29 -15.8,-75.86 -15.8,-102.64 0,-24.68 4.51,-42.74 13.25,-53.73 9.03,-11.14 21.99,-16.77 36.66,-15.51 l 33.84,2.11 34.67,4.1 c 15.81,1.98 34.41,4.24 52.18,5.78 l 2.4,0.13 v -2.38 -397.35 -1.4 z m 53.43,196.84 v 1286.49 h 201.22 V 2560.43 l -0.71,-0.44 c -40.47,-35.8 -75.44,-78.8 -104.22,-127.73 l -0.27,-0.85 -0.84,-0.27 c -15.94,-2.83 -48.8,-9.46 -92.07,-20.17 l -3.11,-2.24 v 1.53 2.55 z m -52.17,1338.66 v -105.62 l -3.81,6.08 c -18.48,29.18 -28.19,63.17 -28.19,98.12 0,101.54 82.48,183.6 183.85,183.6 101.39,0 184.02,-82.06 184.02,-183.6 0,-33.55 -9.03,-66.41 -26.52,-94.88 l -3.8,-6.35 v 7.33 95.03 z m 0.14,-691.89 v -2.11 H 1421.88 v 135.22 h 2.11 309.22 695.98 2.11 v -2.26 -128.74 0 z m 0,508.87 v -133.4 l -3.24,1.28 c -57.81,28.9 -106.87,73.18 -141.28,128.44 -34.97,55.85 -53.3,119.73 -53.3,185.01 0,192.88 157.08,349.81 349.83,349.81 193.02,0 350.1,-156.93 350.1,-349.81 0,-64.86 -18.33,-128.6 -53.02,-184.3 -34.41,-55.12 -82.9,-99.68 -140.72,-128.44 l -2.96,-1.7 v 3.39 131.41 0.98 l 0.56,0.72 c 52.02,44.83 81.64,109.69 81.64,178.21 0,130.01 -105.89,235.75 -235.9,235.75 -129.99,0 -235.88,-105.74 -235.88,-235.75 0,-69.65 30.45,-135.07 83.46,-180.06 l 0.71,-0.56 z m 307.24,-375.76 h 1004.49 v -135.22 h -2.25 l -265.37,0.13 -736.87,-0.13 h -1.83 v 2.11 0.42 130.29 0.14 2.26 z m 0.29,-588.12 c 188.37,-23.41 366.31,-82.76 543.97,-181.33 l 22.27,-12.69 12.98,22.56 c 35.54,62.32 133.11,86.3 185.29,90.25 l 4.51,0.57 -2.82,-3.95 c -25.94,-33.28 -44.27,-67.41 -53.01,-98.29 -11.86,-41.45 -46.26,-52.17 -47.66,-52.59 l -36.12,-10.99 c 5.64,-7.34 22.58,-30.19 22.58,-30.19 0.56,-0.85 20.02,-26.92 20.02,-55.55 0,-4.23 -0.56,-8.03 -1.13,-11.98 -4.52,-22.28 -6.77,-46.53 -6.77,-71.78 0,-8.74 0.29,-18.03 0.84,-28.05 l 0.29,-3.95 -3.39,1.97 c -47.36,27.5 -104.9,73.47 -110.82,135.65 l -1.43,19.04 -19.16,4.08 c -73.6,15.51 -282.28,24.12 -530.44,-18.75 l -2.12,-0.56 v 2.53 301.74 2.55 z m 1801.98,-1393.51 0.56,755.9 -124.93,-0.29 -2.25,-23.39 C 4373.86,2057.2 4170.26,1680.45 3841.73,1395.91 3534.62,1129.7 3142.64,963.031 2738.83,926.102 h -2.25 v 2.25 l -0.59,923.418 v 1.27 l 1.28,0.55 2.11,1.42 2.7,1.69 c 329.22,188.1 687.65,345.6 1077.65,224.61 l 1.13,-0.43 0.29,-1.4 c 10.43,-120.56 151.43,-200.91 157.35,-204.45 l 39.76,-22.28 -0.84,45.69 v 0 c 0,0 0,0.42 0,1.41 0,11.84 1.13,74.3 21.72,132.24 3.66,10.16 5.62,21.3 5.62,33.28 0,18.89 -4.49,39.21 -12.96,60.64 l -0.84,1.84 1.97,0.84 c 32.98,14.24 56.39,36.95 69.64,67.25 24.25,56.12 89.41,105.48 89.97,105.89 l 32.98,24.4 -36.07,19.46 c -57.82,30.74 -214.34,18.33 -291.32,-54.85 l -0.86,-1.13 -1.67,0.99 c -296.68,164.68 -654.26,237.16 -980.81,198.67 l -19.46,-1.84 -1.96,-0.12 -0.3,2.11 c 0,0.27 0,0.27 0,0.56 -0.27,0.42 -0.27,0.98 -0.27,1.69 0,8.45 2.53,20.86 5.08,29.6 l 5.35,15.36 44.28,123.81 -37.8,-0.71 c -53.57,-1.4 -113.64,-21.56 -169.74,-57.53 l -3.26,-1.96 v 3.66 153.13 1.69 l 1.54,0.29 c 208.42,37.08 406.37,38.34 501.7,23.96 l 1.39,-0.15 0.3,-1.4 c 27.07,-118.02 178.78,-178.09 185.54,-180.62 l 45.4,-17.49 c -2.53,11.7 -10.7,47.66 -10.7,47.66 0,0.14 -7.06,30.47 -7.06,71.21 0,21.85 2.26,42.45 5.94,61.35 1.39,7.04 2.25,14.38 2.25,21.69 0,19.46 -5.07,39.49 -14.38,59.78 l -0.59,1.57 1.43,0.98 c 26.23,17.62 43.99,42.31 52.73,73.18 17.2,61.06 76.69,118.29 77.55,118.87 l 30.74,28.91 c -9.86,3.51 -39.77,14.51 -39.77,14.51 -55.26,20.02 -212.62,-3.66 -282.29,-88.82 l -1.12,-1.13 -1.41,0.84 c -179.06,96.15 -358.42,153.97 -547.65,176.67 l -1.54,0.14 v 1.69 344.89 1.97 h 1.83 l 1056.38,-0.42 v 239.29 l -1056.38,-0.3 h -1.83 v 2.11 130.43 1.42 l 1.12,0.28 c 73.18,30.6 135.24,81.78 179.51,148.05 44.54,66.55 67.95,143.83 67.95,223.07 0,221.64 -180.2,401.84 -401.98,401.84 -221.51,0 -401.85,-180.2 -401.85,-401.84 0,-79.53 23.54,-156.94 68.1,-223.64 44.56,-66.55 107.02,-117.45 180.34,-147.76 l 1.4,-0.42 v -1.41 -129.87 -2.11 h -2.11 l -1059.34,0.15 v -239.29 l 1059.34,-0.13 h 2.11 v -1.98 -331.49 -1.84 l -1.96,-0.27 c -19.61,-1.42 -39.07,-3.95 -59.09,-6.21 l -32.99,-3.95 h -1.13 l -23.12,-1.55 -1.98,-0.14 -0.27,1.84 c -0.58,3.23 -0.86,7.18 -0.86,11.13 0,29.9 10.99,86.29 26.8,137.48 l 11.26,36.79 -38.48,-3.1 c -102.5,-8.88 -225.18,-113.64 -273.13,-234.06 l -0.27,-0.84 -1.13,-0.28 -31.01,-8.18 c -249.58,-64.59 -626.19,-162.43 -742.09,-468.4 -8.74,-22.57 -18.75,-59.51 -18.75,-107.46 0,-25.51 2.97,-51.6 8.88,-77.55 v -0.26 -0.29 c 0,-17.48 -47.38,-61.75 -91.94,-101.95 -59.5,-53.44 -110.68,-99.68 -114.21,-143.68 0,-1.39 -0.14,-2.82 -0.14,-4.22 0,-14.11 5.78,-27.36 16.5,-37.52 13.52,-12.82 33.55,-19.17 53.3,-16.64 429.92,56.42 956.13,343.22 1057.36,400.17 79.24,44.84 167.8,86.01 255.51,119 l 2.8,1.13 v -2.95 -273.69 -1.4 l -1.55,-0.44 c -206.85,-57.52 -569.36,-194.01 -670.46,-460.79 v 0 c -8.17,-22.55 -18.6,-59.36 -18.6,-107.29 0,-25.67 3.09,-51.61 8.73,-77.84 l 0.3,-0.42 v 0 c -0.3,-17.49 -47.66,-61.89 -92.23,-101.94 -59.36,-53.59 -110.54,-99.83 -113.93,-143.82 -0.13,-1.41 -0.27,-2.82 -0.27,-3.95 0,-14.39 5.91,-27.64 16.34,-37.5 13.82,-13.26 33.72,-19.2 53.3,-16.93 361.11,47.09 652.84,179.06 809.92,249.57 l 5.35,2.55 2.95,1.4 v -3.25 l 0.44,-767.458 v -2.25 h -2.26 C 2025.36,963.031 1633.65,1129.7 1326.14,1395.91 997.617,1680.45 794.141,2057.2 753.547,2456.8 l -2.402,23.39 -124.786,0.29 v -757.45 c 14.305,0 102.286,0.57 127.039,0.7 h 1.477 l 0.492,-1.54 C 883.195,1390.83 1138.61,1087.12 1474.76,866.309 1811.32,645.77 2205,523.961 2583.01,523.391 h 0.58 0.13 l 1.28,-0.27 c 378.01,0.27 771.69,122.379 1107.83,343.469 336.15,220.81 591.93,525.1 719.69,856.44 l 0.27,1.55 h 1.4 126.62"
         style="fill:#231f20;fill-opacity:1;fill-rule:nonzero;stroke:none"
         id="path12" /><path
         d="m 1448.52,2526.45 c -14.94,-0.86 -21.57,-14.66 -28.19,-27.78 -3.95,-8.59 -9.02,-18.19 -15.78,-26.51 0,0 13.94,-11.7 19.73,-16.48 0.83,-3.54 2.25,-8.76 2.25,-8.76 54.43,12.12 59.51,24.54 61.75,29.34 2.4,5.5 1.98,11.84 -1.4,17.19 -12.98,20.88 -23.69,33.71 -38.36,33"
         style="fill:#231f20;fill-opacity:1;fill-rule:nonzero;stroke:none"
         id="path14" /><path
         d="m 1945.26,1816.65 c -14.92,-0.71 -21.69,-14.53 -28.17,-27.78 -4.1,-8.58 -8.76,-18.33 -15.8,-26.65 0,0 13.96,-11.55 19.87,-16.48 0.71,-3.39 1.84,-8.62 1.84,-8.62 54.7,12 60.06,24.54 62.04,29.2 2.26,5.79 1.84,12.27 -1.69,17.47 -12.69,20.73 -23.41,33.43 -38.09,32.86"
         style="fill:#231f20;fill-opacity:1;fill-rule:nonzero;stroke:none"
         id="path16" /><path
         d="m 136.027,2409.84 c 0,-20.59 16.782,-37.36 37.301,-37.36 20.656,0 37.43,16.77 37.43,37.36 0,20.58 -16.774,37.22 -37.43,37.22 -20.519,0 -37.301,-16.64 -37.301,-37.22"
         style="fill:#231f20;fill-opacity:1;fill-rule:nonzero;stroke:none"
         id="path18" /><path
         d="m 5029.23,2409.71 c 0,20.57 -16.91,37.35 -37.5,37.35 -20.58,0 -37.22,-16.78 -37.22,-37.35 0,-20.46 16.64,-37.23 37.22,-37.23 20.59,0 37.5,16.77 37.5,37.23"
         style="fill:#231f20;fill-opacity:1;fill-rule:nonzero;stroke:none"
         id="path20" /><path
         d="m 189.043,2635.58 c 0,0 22.344,38.21 22.344,38.36 l 0.496,0.41 c 13.683,24.96 27.851,50.78 57.957,49.5 24.738,-1.13 53.008,-20.3 50.828,-71.07 -2.043,-44.68 -20.027,-57.52 -36.027,-68.52 l -0.84,-0.85 -6.281,-4.37 7.546,-1.27 c 32.504,-5.06 38.497,-6.76 56.825,-13.53 l 2.675,-1.13 1.274,2.68 c 8.316,18.47 11.633,27.21 15.289,52.59 1.422,10.15 2.402,20.32 2.824,30.75 2.402,58.65 -17.984,89.66 -30.172,102.91 -18.394,19.76 -44.41,31.32 -73.808,32.59 -54.504,2.11 -75.934,-36.8 -96.805,-74.89 l -0.277,-0.55 -11.922,-22 c -11.906,-21.16 -25.727,-45.13 -56.3909,-43.86 -25.5976,1.28 -52.1758,21.87 -50.1367,65.01 1.6289,40.61 24.1914,58.52 34.7695,67.12 l 6.2657,4.8 -7.8243,0.55 c -27,2.26 -34.3398,3.11 -58.8671,10.58 l -3.3164,1 -0.625,-3.39 c -0.9297,-5.64 -1.6915,-8.19 -3.879,-18.33 l -2.82027,-12.83 c -2.33203,-9.6 -7.335936,-29.48 -7.972655,-44.42 -1.695315,-39.63 9.175785,-74.16 30.675825,-97.57 18.1093,-19.46 42.5039,-30.45 71.0623,-31.59 51.879,-2.25 73.18,30.04 87.133,51.32"
         style="fill:#231f20;fill-opacity:1;fill-rule:nonzero;stroke:none"
         id="path22" /><path
         d="m 78.2188,3035.19 c 3.7382,20.15 16.7734,55.97 62.8122,70.48 31.016,9.59 69.028,5.94 95.461,1.13 38.774,-7.05 69.016,-18.9 89.535,-35.39 12.055,-9.72 21.778,-21.57 28.203,-33.96 7.391,-16.1 9.723,-34.41 6.481,-52.89 -7.461,-41.3 -37.645,-59.92 -55.129,-66.97 -25.027,-10.45 -59.496,-11.58 -102.578,-3.95 -66.836,11.98 -107.7188,37.79 -121.754,76.98 -4.7969,14.09 -5.7812,29.33 -3.0312,44.57 z M 191.016,2852.73 c 57.82,-10.72 106.035,-3.67 143.328,20.3 19.453,12.41 35.398,29.89 46.609,50.33 8.668,15.8 14.801,33.7 18.242,53.03 9.176,50.61 -0.347,93.47 -28.472,127.02 -27.141,32.86 -69.446,54.72 -125.493,65.15 -54.214,9.6 -99.402,4.52 -134.164,-14.94 -37.2887,-21.57 -63.0191,-60.76 -71.9058,-110.82 -8.6719,-47.52 0.6406,-90.24 26.8632,-123.81 26.293,-33.84 68.2346,-56.12 124.9926,-66.26"
         style="fill:#231f20;fill-opacity:1;fill-rule:nonzero;stroke:none"
         id="path24" /><path
         d="m 152.242,3290.11 c 21.719,-5.64 43.926,-12.42 74.379,-22.28 l 85.449,-28.2 c 33.203,-10.72 77.258,-25.94 98.262,-36.94 12.84,-6.2 18.277,-11.43 25.891,-18.61 l 3.804,-3.67 1.399,5.08 c 7.828,30.17 10.945,41.45 29.347,97.58 17.403,52.73 21.426,63.16 32.637,90.8 l 1.129,2.96 -2.824,1.13 c -23.406,10.14 -30.594,13.67 -55.063,27.07 l -8.394,4.64 4.172,-8.74 c 7.461,-15.93 14.504,-30.73 -2.825,-83.46 -8.121,-24.81 -15.234,-38.08 -22.699,-51.9 -34.058,8.74 -59.433,15.8 -124.218,36.95 C 153.156,3348.2 138,3362.3 128.98,3370.75 l -0.984,0.86 -4.094,3.8 -1.058,-5.49 c -2.184,-11 -4.367,-23.12 -8.672,-35.81 -3.742,-11.56 -11.77,-29.62 -13.82,-32.86 l -3.102,-4.93 5.852,0.27 c 13.535,0.29 22.492,0.29 49.14,-6.48"
         style="fill:#231f20;fill-opacity:1;fill-rule:nonzero;stroke:none"
         id="path26" /><path
         d="m 234.941,3562.53 c 14.032,-3.95 21.5,-6.77 91.297,-34.97 l 34.184,-14.95 c 38.773,-16.78 71.062,-31.01 111.48,-50.76 36.223,-17.77 42.852,-24.82 51.039,-33.7 l 4.008,-4.23 1.348,5.5 c 3.656,14.09 7.043,25.1 11.285,34.68 5.133,11.98 12.195,23.41 17.547,31.73 l 3.094,4.93 h -5.77 c -19.387,-0.41 -26.015,0.84 -59.652,13.82 -40.25,16.07 -70.086,28.49 -113.719,47.38 l -34.113,14.65 c -86.082,38.93 -94.688,42.88 -115.336,64.59 l -3.746,3.96 -1.407,-5.36 c -3.808,-12.98 -7.117,-23.7 -11.781,-34.4 -4.711,-11.02 -10.992,-21.74 -17.203,-32.02 l -2.601,-4.65 5.289,-0.29 c 9.164,0 15.226,0 34.757,-5.91"
         style="fill:#231f20;fill-opacity:1;fill-rule:nonzero;stroke:none"
         id="path28" /><path
         d="m 353.449,3796.02 1.91,4.38 c 5.063,11.97 12.817,29.89 21.844,45.25 15.367,26.23 35.973,44.83 59.582,53.59 43.145,15.51 84.738,-3.68 116.25,-22.01 54.574,-32.42 81.985,-67.11 83.406,-106.87 1.184,-31.59 -18.054,-66.85 -23.898,-76.99 -22.703,-38.21 -34.059,-31.87 -49.625,-23.13 l -120.07,70.5 c -31.239,18.33 -70.43,42.87 -89.399,55.28 z m 69.594,-106.6 c 0,0.15 51.734,-30.18 51.734,-30.18 l 16.856,-10.43 36.023,-22.55 c 51.387,-32.3 55.41,-42.31 57.672,-47.66 l 2.457,-6.2 3.184,5.91 c 1.765,3.38 3.386,6.77 5.211,10.3 3.383,6.9 7.258,14.8 13.886,26.09 4.168,7.04 8.954,14.38 14.379,22.84 6.7,10.29 14.379,22 22.5,35.81 22.899,38.92 47.243,90.8 31.657,146.36 -15.309,54.56 -60.215,90.52 -95.262,110.97 -10.848,6.62 -49.203,28.05 -86.703,34.53 -77.129,12.56 -117.938,-38.63 -145.028,-84.44 -9.23,-15.66 -15.781,-29.06 -21.988,-42.04 -5.719,-11.83 -11.144,-23.12 -18.328,-35.09 -8.531,-14.68 -24.605,-36.25 -29.117,-41.18 l -3.809,-3.81 5.36,-1.27 c 29.257,-7.04 39.121,-9.59 139.316,-67.96"
         style="fill:#231f20;fill-opacity:1;fill-rule:nonzero;stroke:none"
         id="path30" /><path
         d="m 574.68,4046.43 c -0.149,0 95.804,-78.38 95.804,-78.38 l 0.707,-0.59 c 35.118,-26.77 74.727,-56.95 122.532,-40.44 24.609,8.03 50.843,32.27 67.047,52.3 16.632,20.29 38.988,51.61 40.335,85.44 1.821,49.65 -29.546,78.11 -57.398,103.22 l -0.414,0.28 -100.816,82.64 c -45.125,37.77 -55.356,49.33 -67.332,68.52 l -2.457,4.37 -2.622,-4.37 -1.347,-1.84 c -4.992,-8.03 -10.012,-16.22 -15.781,-23.54 -6.282,-7.63 -13.055,-14.25 -21.426,-21.44 l -4.371,-3.66 5.57,-1.69 c 9.156,-2.68 14.582,-5.08 24.668,-12.13 7.187,-4.51 32.07,-24.24 53.715,-41.74 l 81.152,-66.55 c 42.086,-34.41 85.379,-69.94 37.996,-127.74 -29.039,-35.53 -57.801,-44.85 -90.527,-29.91 -14.238,6.5 -28.473,18.06 -48.277,34.13 l -81.372,66.56 c -16.074,13.25 -37.988,31.16 -52.375,48.35 -9.589,11.14 -11.285,15.8 -12.539,21.59 l -1.785,7.04 -3.933,-6.06 -0.926,-1.55 c -6.481,-10.01 -13.106,-20.31 -21.008,-29.9 -7.336,-9.02 -15.926,-17.33 -24.32,-25.38 l -0.84,-0.84 -4.438,-4.22 5.914,-1.13 c 14.747,-2.84 21.497,-3.95 80.864,-51.34"
         style="fill:#231f20;fill-opacity:1;fill-rule:nonzero;stroke:none"
         id="path32" /><path
         d="m 828.398,4347.34 32.657,-39.21 13.82,-17.33 c 42.012,-52.61 72.25,-90.67 86.082,-112.39 11.981,-17.91 16.055,-28.2 20.027,-38.35 l 0.981,-2.26 2.113,-5.08 3.098,4.52 c 5.929,7.6 13.124,15.08 20.584,21.44 8.47,7.32 18.04,13.67 27.07,19.59 l 3.95,2.55 -3.66,2.67 c -21.15,14.23 -29.05,21.86 -59.507,58.65 l -41.738,49.79 c -22.828,27.49 -42.707,51.32 -64.793,76.84 -7.879,9.16 -14.797,16.64 -21.277,23.53 23.953,-14.8 40.047,-24.1 68.375,-39.9 l 188.17,-108.86 1.98,-0.98 1.55,1.42 18.88,16.2 1.56,1.42 -0.71,2.11 -76.83,217.43 -18.75,53.45 c -2.7,7.75 -4.95,14.08 -6.78,19.45 11.84,-15.38 28.2,-34.82 49.36,-59.36 l 60.61,-70.08 c 52.88,-61.2 64.72,-82.63 66.28,-95.88 l 0.84,-7.04 4.8,5.35 c 9.58,11.55 17.77,20.31 25.94,27.21 9.87,8.46 20.87,15.66 30.17,21.43 l 5.08,3.24 -5.63,2.25 -1.42,0.72 c -6.91,2.82 -12.69,4.92 -24.68,16.5 -26.36,23.12 -62.18,63.71 -163.42,182.73 -30.16,35.81 -33.27,43.85 -41.45,65.43 l -1.69,4.93 -3.38,-3.81 c -12.69,-13.96 -22.85,-24.24 -33.133,-33.12 -13.672,-11.59 -20.445,-15.66 -29.183,-20.59 l -2.551,-1.55 1.422,-2.7 c 13.383,-24.66 16.914,-34.4 27.637,-63.58 l 0.14,-0.86 c 0,0.15 35.248,-102.21 35.248,-102.21 l 6.92,-20.44 c 7.88,-23.56 17.62,-51.9 27.63,-73.33 -18.35,12.69 -34.7,22.97 -63.458,38.07 0.285,-0.13 -92.148,53.59 -92.148,53.59 -32.786,19.17 -45.692,27.07 -77.477,51.31 l -2.258,1.7 -1.84,-1.97 -3.804,-3.8 c -9.575,-10.02 -18.602,-19.34 -28.266,-27.51 -11.141,-9.87 -22.559,-18.04 -34.969,-26.78 l -1.55,-1.13 -7.258,-5.07 8.808,-0.42 c 8.192,-0.59 22.918,-1.28 71.828,-59.93"
         style="fill:#231f20;fill-opacity:1;fill-rule:nonzero;stroke:none"
         id="path34" /><path
         d="m 1411.59,4675.3 c -5.23,10.15 -24.12,45.4 -24.12,45.4 -21.28,40.34 -27.49,53.86 -35.95,72.19 l -2.68,5.79 c 8.32,5.77 14.82,9.72 25.52,15.37 11.98,6.48 36.95,20.02 61.48,12.68 14.94,-4.51 27.63,-16.22 37.79,-35.11 11.99,-22.14 14.38,-44.42 7.04,-62.46 -5.91,-15.51 -19.59,-28.76 -40.05,-39.77 -4.78,-2.53 -10.84,-5.35 -17.76,-8.74 z m -77.55,29.33 52.03,-96.87 c 33.42,-62.18 49.49,-101.37 48.07,-116.61 0,0 0,-0.42 0,-0.69 l -0.56,-6.23 5.37,3.26 1.13,0.84 c 10.14,6.63 20.57,13.12 31.58,19.19 11,5.62 22.26,10.84 33.55,15.63 l 6.06,2.55 -6.06,3.09 c -0.29,0.15 -0.69,0.3 -1.13,0.44 -5.64,2.68 -18.46,8.45 -67.12,98.97 l -6.2,11.57 9.59,4.8 c 8.32,3.93 14.8,7.32 21.86,11 25.8,14.08 61.9,37.08 74.31,76.68 10.85,35.54 -1.13,69.95 -13.4,92.65 -15.36,28.48 -34.26,46.39 -56.26,53.16 -33.55,10 -68.4,-6.21 -98.14,-22.28 -3.95,-2.11 -14.38,-7.89 -24.54,-13.68 -9.43,-5.35 -18.46,-10.44 -21.7,-12.27 -18.62,-9.87 -32.44,-15.63 -45.54,-21.43 l -7.49,-3.09 -4.93,-2.11 4.37,-3.26 c 19.33,-14.09 46.11,-59.64 65.15,-95.31"
         style="fill:#231f20;fill-opacity:1;fill-rule:nonzero;stroke:none"
         id="path36" /><path
         d="m 1608,4854.36 1.41,-3.38 44.98,-116.32 c 10.86,-28.34 22.99,-60.78 28.34,-87.84 2.26,-10.44 2.55,-17.21 2.82,-28.48 v -5.08 l 4.52,2.4 c 22.55,11.69 41.45,19.03 82.33,34.95 l 3.95,1.57 c 38.78,14.95 64.45,23.41 81.5,28.91 5.94,2.11 10.43,3.51 14.38,4.93 l 2.55,0.84 -0.57,2.82 c -6.2,24.81 -7.48,31.59 -8.75,61.2 l -0.55,10.85 -5.37,-9.45 c -7.88,-13.82 -14.38,-25.65 -45.12,-41.74 -12.96,-7.04 -23.39,-10.99 -28.33,-12.96 -49.22,-19.19 -52.02,-16.37 -65.86,18.46 0,0 -25.38,65.86 -31.02,80.24 35.83,14.95 55.27,22.28 78.97,28.76 14.8,3.95 20.17,3.39 34.11,0.57 l 7.07,-1.41 -3.68,5.92 c -5.64,9.3 -9.03,15.51 -13.53,27.21 -5.37,13.4 -7.33,21.01 -9.59,32.85 l -1.96,8.46 -3.95,-7.76 -0.3,-0.7 c -3.65,-6.76 -5.91,-10.99 -13.25,-16.5 -7.19,-5.2 -20.59,-11.41 -37.79,-18.04 -22.97,-9.03 -36.79,-13.25 -52.17,-17.63 l -18.33,47.38 c -6.19,15.5 -12.69,33.84 -18.19,50.34 15.38,6.91 25.1,11.13 41.6,17.34 51.88,20.31 59.78,18.05 79.11,7.61 l 8.88,-4.79 -4.51,8.88 c -4.52,8.61 -7.48,15.23 -10.16,22.14 -2.54,6.63 -4.51,12.68 -6.48,19.17 -1.42,4.09 -2.82,8.32 -4.24,12.71 l -1.13,3.09 -3.09,-1.28 c -29.33,-12.82 -67.27,-29.18 -101.53,-42.43 -44.83,-17.35 -62.6,-22.13 -72.19,-24.81 l -0.98,-0.29 -4.37,-1.13 2.82,-3.66 c 20.15,-25.67 25.37,-38.64 47.65,-93.92"
         style="fill:#231f20;fill-opacity:1;fill-rule:nonzero;stroke:none"
         id="path38" /><path
         d="m 1826.83,5036.97 c 2.97,-7.2 5.35,-13.4 7.19,-20.59 2.26,-9.03 2.97,-18.61 3.24,-26.65 l 0.57,-8.46 5.08,6.62 c 11.28,14.53 18.18,20.17 56.41,30.18 0,-0.14 30.72,7.48 40.32,9.87 7.47,-22.7 17.06,-54.56 40.03,-146.92 32.73,-132.69 26.52,-146.5 24.39,-151.72 l -0.12,-0.41 -2.97,-6.77 6.92,2.53 1.96,0.85 c 11.56,4.23 22.85,8.45 34.97,11.27 11,2.82 23.12,4.79 34.68,5.65 l 6.08,0.56 -3.83,4.52 c -5.05,6.2 -8.44,10.15 -14.94,26.5 -10.99,26.8 -24.39,78.68 -36.1,125.77 -17.47,70.23 -25.52,107.16 -32.56,142.69 l 35.39,8.89 c 44.83,9.45 49.63,9.45 71.21,1.27 l 6.77,-2.82 -2.97,6.9 c -3.66,9.18 -6.77,18.48 -9.03,26.65 -2.25,9.31 -3.93,19.18 -5.06,30.45 l -0.29,3.95 -3.95,-1.12 c -34.4,-11.56 -71.34,-21.43 -135.78,-37.23 -56.54,-13.95 -113.08,-27.77 -128.45,-28.33 l -4.36,-0.14 1.54,-3.95 c 1.41,-3.67 2.68,-6.92 3.66,-10.01"
         style="fill:#231f20;fill-opacity:1;fill-rule:nonzero;stroke:none"
         id="path40" /><path
         d="m 2205.85,4957.58 c 5.91,-40.88 10.43,-75.58 15.09,-121.54 3.79,-40.32 1.26,-49.48 -1.84,-61.06 l -1.69,-5.5 5.64,1.7 c 10.14,3.11 22.56,6.62 35.25,8.46 12.98,1.97 26.23,1.97 36.36,1.97 l 5.65,-0.28 -3.1,4.79 c -10.43,16.36 -12.98,22.7 -19.46,58.1 -7.61,43.28 -12.69,75.3 -19.45,121.54 l -5.35,36.66 c -12.13,93.62 -12.99,103.21 -5.5,131.97 l 1.25,5.08 -5.08,-1.27 -1.4,-0.42 c -10.99,-2.82 -22.56,-5.92 -34.13,-7.33 -11.27,-1.7 -23.26,-2.26 -34.81,-2.54 h -1.56 l -5.35,-0.14 2.82,-4.66 c 4.79,-7.75 7.88,-12.96 13.25,-32.7 3.66,-14.11 5.22,-22.01 18.04,-96.02 l 5.37,-36.81"
         style="fill:#231f20;fill-opacity:1;fill-rule:nonzero;stroke:none"
         id="path42" /><path
         d="m 2599.64,5128.75 c -0.26,8.88 -0.26,18.62 0.86,30.75 l 0.28,3.8 -3.66,-0.42 c -35.54,-4.51 -73.6,-6.77 -140.59,-9.87 -58.36,-2.54 -116.32,-4.94 -131.54,-2.54 l -4.37,0.56 0.69,-4.23 c 0.72,-3.38 1.28,-6.62 1.7,-9.59 1.55,-8.17 2.67,-14.94 3.11,-22.55 0.42,-9.31 -0.71,-18.62 -1.98,-26.65 l -1.26,-8.32 6.19,5.35 c 14.11,12.13 22.01,16.23 61.49,18.62 0,0 31.44,1.41 41.16,1.83 2.97,-23.4 6.21,-55.98 10.58,-152.13 6.06,-136.49 -2.68,-148.91 -5.78,-153.42 l -0.28,-0.56 -4.23,-5.92 7.19,1.13 0.42,0.14 c 12.98,2.11 25.25,4.08 38.35,4.65 11.42,0.56 23.83,0 35.25,-1.13 l 6.08,-0.7 -3.11,5.21 c -3.66,6.77 -6.36,11.29 -9.31,28.76 -5.49,28.07 -8.31,79.25 -10.58,130.43 -3.53,72.91 -4.23,110.41 -4.23,146.22 l 36.66,1.69 c 45.54,0.57 50.35,-0.28 69.94,-12.69 l 5.93,-3.81 -1.27,7.19 c -1.97,10.16 -3.39,19.61 -3.69,28.2"
         style="fill:#231f20;fill-opacity:1;fill-rule:nonzero;stroke:none"
         id="path44" /><path
         d="m 2837.81,4787.96 c 12.68,-1.55 25.1,-4.66 35.53,-7.48 l 5.64,-1.68 -1.69,5.63 c -5.94,18.33 -7.06,25.1 -4.22,60.92 3.36,42.29 6.75,74.3 12.39,122.53 l 3.67,36.79 c 12.12,92.22 14.1,103.22 28.76,129.16 l 2.55,4.51 h -5.36 -1.42 c -11.83,0 -23.68,0 -34.96,1.41 -11.84,1.42 -23.98,4.24 -35.54,7.05 l -5.35,1.27 1.4,-4.93 c 2.54,-8.88 4.24,-14.66 4.24,-35.25 0.28,-15.09 -0.29,-23.69 -7.05,-97.57 l -4.24,-36.94 c -4.78,-41.6 -9.3,-76.57 -16.34,-121.27 -6.5,-39.9 -11.29,-48.22 -17.2,-58.8 l -2.82,-4.93 5.35,0.29 c 14.37,0.69 25.94,0.54 36.66,-0.71"
         style="fill:#231f20;fill-opacity:1;fill-rule:nonzero;stroke:none"
         id="path46" /><path
         d="m 2964.7,4770.61 c 10.73,-0.69 20.86,-1.4 31.03,-3.81 9.59,-2.4 19.45,-6.62 29.04,-10.86 l 0.84,-0.27 4.81,-2.12 -0.85,5.23 c -3.1,31.02 5.07,66.26 12.68,97 v 0.56 l 15.24,62.18 c 14.65,60.78 21.15,93.77 25.1,123.1 2.81,-10.71 7.04,-24.82 13.53,-45.41 l 11.01,-35.39 45.94,-150.45 c 15.51,-48.35 17.23,-54.7 25.96,-89.82 l 0.84,-2.25 h 1.98 c 9.58,-0.28 18.05,-1.26 26.52,-3.25 8.73,-2.25 17.19,-5.91 26.23,-9.3 l 0.83,-0.42 3.68,-1.54 0.54,4.22 c 3.11,32.56 10.45,64.57 17.49,94.47 15.51,63.03 30.76,121.54 46.81,178.51 11.85,40.89 19.18,54.43 27.08,66.83 l 2.53,3.95 -4.51,0.85 -1.96,0.27 c -10.16,1.41 -20.03,2.83 -28.78,5.08 -14.39,3.39 -25.93,7.05 -32.99,9.87 l -5.92,2.54 1.41,-5.93 c 2.25,-10.99 6.2,-29.32 -14.1,-113.78 l -15.23,-62.18 c -5.08,-20.73 -14.66,-60.36 -20.3,-89.11 -1.98,7.75 -5.08,17.2 -9.32,31.58 l -13.52,43.71 -43.15,144.53 c -13.54,55.83 -14.94,61.76 -17.49,81.08 l -0.27,2.25 -2.55,0.28 c -17.21,1.69 -34.39,5.36 -45.97,8.17 -12.12,2.82 -23.41,6.64 -38.91,12.42 l -7.32,2.82 3.38,-7.06 c 7.32,-14.66 10.14,-20.57 2.8,-65.14 -10.13,-59.49 -40.88,-188.23 -59.21,-238.57 -8.17,-22.41 -13.26,-30.88 -19.46,-39.9 l -2.8,-4.37 5.35,-0.28 1.96,-0.29"
         style="fill:#231f20;fill-opacity:1;fill-rule:nonzero;stroke:none"
         id="path48" /><path
         d="m 3637.56,4886.24 c 9.87,-3.25 16.65,-5.93 27.64,-11.28 20.86,-9.87 69.08,-33.14 40.61,-93.21 -11,-22.97 -27.36,-38.21 -46.25,-42.72 -15.78,-4.23 -34.97,-1.4 -55.56,8.61 -5.35,2.38 -11,5.64 -17.75,9.43 l -11.01,5.64 c 5.08,10.16 22.28,46.4 22.28,46.4 20.58,41.87 27.36,54.14 37.79,73.18 z m -162.15,-271.16 c 10.43,-4.92 20.88,-10.85 32.44,-17.62 l 5.62,-3.39 -1.13,6.5 c 0,0.57 -0.27,0.84 -0.27,1.4 -1.13,5.94 -3.95,20.03 40.05,112.52 0,0 3.95,7.63 5.91,11.85 l 8.74,-4.52 c 8.47,-4.36 15.24,-7.89 22.57,-11.41 26.21,-12.56 66.55,-27.92 105.74,-14.53 35.27,12.13 55.84,42.31 66.83,65.43 43.16,90.53 -28.17,124.64 -66.55,142.7 -3.93,1.97 -14.38,6.76 -24.24,11.27 -10.15,4.37 -20.3,9.02 -23.69,10.72 -20.02,9.45 -33,17.2 -45.67,24.96 l -5.64,3.24 -4.52,2.82 v -5.36 c -0.29,-19.45 -12.98,-56.12 -38.63,-109.14 l -47.38,-98.98 c -30.46,-63.72 -52.45,-99.97 -65.72,-107.72 0,-0.13 -0.27,-0.28 -0.56,-0.43 l -5.07,-3.24 5.63,-2.25 c 12.15,-4.66 23.97,-9.31 35.54,-14.82"
         style="fill:#231f20;fill-opacity:1;fill-rule:nonzero;stroke:none"
         id="path50" /><path
         d="m 3949.45,4717.31 c 39.21,-25.37 47.95,-55.83 25.66,-90.24 -4.78,-6.48 -17.47,-26.23 -44.56,-31.01 -26.5,-4.24 -47.93,9.59 -63.43,20.02 -7.34,4.51 -11.86,7.88 -18.05,13.11 6.19,9.45 29.89,45.96 29.89,45.96 14.93,22.7 21.99,33.57 41.46,58.8 z m -256.9,-206.28 -1.12,-0.57 -5.37,-2.53 5.37,-2.97 c 11,-6.2 21.99,-12.12 32.15,-18.75 10.7,-6.89 21.15,-15.08 30.72,-22.4 l 4.25,-3.12 0.56,5.38 0.27,1.39 c 0.86,7.62 1.41,13.97 7.63,27.37 7.05,14.65 14.93,28.76 34.12,60.34 0,0 20.29,30.73 26.21,40.03 l 29.9,-20.57 c 2.25,-18.89 3.1,-32.73 -0.85,-90.82 -1.96,-23.68 -4.23,-51.17 -9.3,-77.82 l -0.56,-2.26 1.96,-1.12 7.34,-3.95 c 11.56,-6.21 18.62,-10.01 28.48,-16.37 9.58,-6.18 17.21,-12.12 25.38,-19.59 l 7.61,-6.35 -2.26,9.45 c -6.75,27.36 -6.19,46.96 -4.78,94.89 0,0 2.81,71.07 3.38,88.97 25.38,-6.9 79.8,-4.64 111.95,44.41 17.78,27.78 24.25,53.59 19.46,76.72 -6.48,31.87 -32.98,52.73 -60.63,70.64 -10.7,6.9 -21.13,13.4 -30.17,19.02 -7.06,4.25 -12.97,8.05 -18.33,11.29 -31.58,20.59 -36.38,25.1 -46.53,34.41 l -4.24,3.95 -0.84,-5.65 c -3.94,-20.15 -20.02,-51.17 -48.22,-94.75 l -48.51,-74.72 c -37.79,-57.11 -59.78,-90.24 -74.16,-107.17 -10.43,-11.97 -15.22,-14.38 -20.87,-16.78"
         style="fill:#231f20;fill-opacity:1;fill-rule:nonzero;stroke:none"
         id="path52" /><path
         d="m 4287.86,4397.25 c -8.45,-33.14 -33.56,-65.71 -48.23,-82.05 -26.23,-29.77 -51.88,-49.38 -76.69,-58.38 -14.67,-5.37 -29.34,-7.63 -43.43,-6.5 -17.77,1.98 -34.7,9.59 -48.52,21.71 -31.85,28.07 -32.15,63.32 -29.03,81.94 3.93,26.78 20.86,56.96 49.62,89.82 45.69,51.59 87.7,72.59 128.88,64.29 14.65,-3.39 28.2,-10.3 40.05,-20.88 15.22,-13.25 38.9,-42.87 27.35,-89.95 z m -298.93,-44.55 c 0.29,-23.13 7.04,-45.84 18.9,-66 9.02,-15.5 21.15,-29.88 35.81,-43.16 38.91,-34.11 80.38,-47.93 123.52,-41.45 42.31,6.21 83.2,31.04 120.7,73.75 36.66,41.32 55.55,82.5 56.97,122.25 0.84,43.14 -19.75,85.3 -57.81,119 -36.11,31.87 -77.55,46.11 -119.86,40.9 -29.32,-3.38 -74.45,-18.75 -121.54,-72.48 -38.92,-43.98 -58.09,-88.83 -56.69,-132.81"
         style="fill:#231f20;fill-opacity:1;fill-rule:nonzero;stroke:none"
         id="path54" /><path
         d="m 4301.11,4173.62 c -43.71,-37.08 -70.49,-59.51 -98.98,-70.23 l -4.78,-1.69 3.65,-3.39 c 9.87,-9.15 18.9,-18.03 25.94,-26.21 7.05,-8.46 13.82,-17.49 21.15,-27.92 l 2.82,-4.79 2.54,5.22 0.56,1.12 c 3.11,6.64 4.79,10.15 10.43,17.49 17.77,22.7 40.91,43.14 105.2,97.84 12.12,-13.1 19.46,-21.28 24.82,-27.49 l 1.69,-1.98 c 0,0.15 1.39,-1.4 1.39,-1.4 5.38,-6.35 16.65,-19.6 23.71,-29.89 14.09,-19.75 14.95,-26.51 16.64,-36.94 l 1.13,-6.5 c 0,-0.27 4.51,4.79 4.51,4.79 l 1.13,1.01 c 6.48,7.46 13.53,15.08 21.43,22.4 7.04,6.08 13.53,10.16 20.59,14.96 l 4.21,2.81 5.92,3.68 -6.75,1.81 c -1.71,0.44 -3.11,0.72 -4.52,1.01 -7.6,1.4 -13.83,2.53 -32.7,21.43 -9.89,10.15 -18.34,19.6 -25.11,28.34 -1.96,2.96 -4.8,6.06 -8.17,10.28 -4.52,5.23 -9.89,11.71 -16.94,20.59 l 33.58,28.76 c 16.64,14.67 22.84,20.32 46.79,39.07 3.39,-3.53 6.49,-6.9 9.88,-10.16 3.67,-3.81 7.62,-7.75 11.57,-11.85 2.53,-3.24 5.92,-6.63 8.74,-9.72 2.82,-3.1 5.92,-6.48 8.74,-9.72 11.85,-13.55 21.98,-28.35 27.63,-39.21 5.35,-11.69 4.52,-19.03 3.95,-26.78 v -1.99 l -1.13,-10.57 6.78,8.46 c 6.2,7.9 12.97,14.95 20.29,21.16 7.06,6.2 12.12,9.44 21.15,14.94 l 3.39,1.98 -2.53,2.81 c -22.58,23.7 -47.95,50.35 -67.68,73.32 -18.63,21.16 -42.88,51.89 -54.43,66.56 l -5.08,6.62 -3.09,3.81 -1.99,-4.23 c -8.18,-15.78 -12.98,-25.25 -97.85,-98.84 l -69.1,-59.93 -1.12,-0.84"
         style="fill:#231f20;fill-opacity:1;fill-rule:nonzero;stroke:none"
         id="path56" /><path
         d="m 4483.29,3976.08 v 0 c -0.3,-0.15 -0.3,-0.15 -0.3,-0.15 -36.36,-25.37 -77.54,-54.01 -76.41,-104.76 0.56,-25.79 15.51,-58.09 29.62,-79.95 14.37,-21.99 37.22,-52.45 69.37,-64.15 46.8,-16.78 83.46,4.66 115.88,23.55 h 0.29 l 109.13,71.35 c 49.92,31.16 64.03,37.5 86.02,43.14 l 4.81,1.12 -3.39,3.81 c -7.34,8.32 -13.84,15.8 -19.19,24.12 -5.35,8.03 -9.57,16.07 -13.81,26.78 l -2.54,5.08 -2.82,-4.52 c -5.36,-8.17 -9.3,-12.54 -18.89,-20 -6.78,-5.65 -34.14,-23.7 -56.42,-38.38 l -87.97,-57.23 c -45.4,-29.62 -92.49,-60.07 -133.38,2.68 -24.54,38.21 -25.1,68.53 -0.57,95.04 9.87,11.41 23.98,21 47.1,35.66 l 87.71,57.39 c 16.63,10.58 41.17,26.65 62.03,35.4 13.81,5.64 18.6,5.91 24.54,5.35 l 7.31,-0.57 -4.78,5.64 -0.86,0.86 c -7.61,9.3 -15.51,19.02 -22.26,29.6 -6.5,9.59 -11.56,20.02 -16.64,30.33 l -0.86,1.67 -2.82,5.23 -2.81,-5.23 c -7.05,-13.1 -10.44,-19.17 -73.33,-61.45 0,0.12 -103.76,-67.41 -103.76,-67.41"
         style="fill:#231f20;fill-opacity:1;fill-rule:nonzero;stroke:none"
         id="path58" /><path
         d="m 4553.78,3614.41 -5.36,-0.57 3.11,-4.36 0.84,-1.28 c 6.21,-8.88 11.85,-17.47 15.8,-27.07 4.23,-9.01 6.76,-19.73 9.31,-30.03 v -0.42 l 1.12,-5.08 3.95,3.66 c 23.12,22 56.13,36.53 85.16,49.37 l 58.67,25.64 c 57.8,25.52 87.69,40.62 112.79,55 -6.48,-8.74 -14.95,-20.59 -27.36,-38.07 l -21.72,-30.6 -91.64,-127.88 c -28.76,-41.74 -32.71,-46.82 -55.26,-75.16 l -1.43,-1.82 1.43,-1.99 c 5.62,-8.02 9.86,-15.23 12.96,-22.7 3.95,-8.46 6.21,-17.2 8.74,-26.35 l 0.29,-1.13 1.12,-3.95 3.67,2.11 c 27.92,17.47 57.81,31.17 85.72,43.56 60.36,26.79 116.19,50.06 170.06,71.63 39.48,15.24 54.13,17.77 69.65,18.9 l 5.07,0.56 -2.82,4.22 c -4.79,9.03 -10.43,18.63 -14.09,27.36 -6.5,14.11 -10.45,25.11 -12.41,32.42 l -1.13,5.94 -4.22,-4.51 c -7.35,-8.47 -19.47,-22.85 -99,-57.82 l -58.36,-25.94 -4.8,-2.11 c -22.85,-10.16 -55,-24.39 -78.68,-35.96 5.08,6.34 10.7,14.39 19.17,26.51 l 27.07,37.5 88.27,121.82 2.82,3.26 c 33.84,42.16 37.78,46.38 51.04,59.92 l 1.7,1.7 -1.14,2.25 c -10.72,16.92 -18.6,34.53 -21.42,41.31 -5.08,11.41 -9.3,22.7 -14.1,38.5 l -2.27,7.61 -3.36,-7.05 c -6.78,-14.25 -10.17,-20.59 -49.92,-41.74 -53.03,-28.2 -174.28,-81.91 -225.62,-98.13 -23.95,-7.63 -34.4,-8.32 -43.42,-9.03"
         style="fill:#231f20;fill-opacity:1;fill-rule:nonzero;stroke:none"
         id="path60" /><path
         d="m 5016.26,3287.29 1.41,-4.1 c 4.81,-12.27 12.13,-30.31 16.64,-47.8 7.61,-29.75 5.94,-57.53 -4.51,-80.08 -19.46,-41.45 -62.88,-57.1 -97.85,-66.28 -61.76,-15.63 -105.76,-10.14 -134.8,17.08 -22.84,21.57 -34.13,59.92 -36.95,71.21 -11.27,43.14 1.42,46.8 18.9,51.74 -0.28,-0.15 134.79,34.4 134.79,34.4 33.28,8.6 78.12,18.75 102.37,23.83 z m -182.45,11.56 -20.02,-4.51 -40.61,-9.58 c -59.78,-13.25 -69.38,-8.89 -74.73,-6.77 l -6.2,2.95 2.26,-6.63 c 0.55,-3.66 1.96,-7.32 3.38,-11.27 2.53,-7.33 5.07,-15.65 8.46,-28.2 1.97,-7.62 3.94,-16.21 5.63,-25.95 2.82,-12.13 5.64,-25.95 9.59,-41.45 11.29,-43.86 30.46,-97.85 80.64,-126.19 49.08,-28.07 106.6,-21.87 145.81,-11.71 12.13,3.1 54.71,14.95 85.73,36.66 63.73,45.68 56.69,110.54 43.71,162.14 -4.8,17.5 -9.58,31.59 -13.82,44.84 -4.79,12.71 -8.74,24.54 -12.4,38.36 -3.95,16.36 -7.89,42.86 -7.89,49.64 l -0.3,5.35 -4.52,-2.83 c -25.64,-15.5 -34.68,-20.73 -146.9,-50.18 0,0 -58.11,-14.67 -57.82,-14.67"
         style="fill:#231f20;fill-opacity:1;fill-rule:nonzero;stroke:none"
         id="path62" /><path
         d="m 4960.43,2936.76 c -43.72,-5.92 -77.55,-10.14 -121.83,-14.38 -40.04,-3.66 -49.64,-0.86 -61.19,2.26 l -5.63,1.4 1.67,-5.35 c 2.84,-9.58 6.5,-22.29 8.47,-35.25 1.12,-10.45 1.69,-21.59 1.42,-36.24 l -0.3,-5.91 5.37,3.09 c 16.06,10.3 22.56,12.83 57.81,19.19 44.56,7.46 76.71,12.27 121.83,18.31 l 36.66,5.22 c 93.9,11.29 103.49,12.12 132.25,4.52 l 5.08,-1.4 -1.42,5.05 v 0.44 c -2.8,11.56 -6.19,23.41 -7.9,35.39 -1.41,11.56 -1.68,23.68 -1.68,35.39 v 0.71 5.35 l -4.8,-2.53 c -8.18,-4.8 -13.26,-7.9 -32.71,-12.84 -14.38,-3.8 -22.56,-5.49 -96.44,-17.63 l -36.66,-4.79"
         style="fill:#231f20;fill-opacity:1;fill-rule:nonzero;stroke:none"
         id="path64" /><path
         d="m 5161.77,2658.43 c -1.69,39.77 -15.5,73.32 -38.36,94.75 -19.45,18.2 -45.1,27.08 -73.59,26.08 -52.17,-1.84 -70.5,-35.95 -82.63,-58.23 -0.27,-0.27 -19.17,-40.05 -19.17,-40.05 l -0.28,-0.27 c -11.56,-25.94 -23.96,-53.03 -54.14,-54.16 -13.55,-0.42 -25.96,3.97 -35.83,12.98 -12.39,11.85 -19.44,30.45 -20.29,53.86 -1.69,44.57 15.23,58.95 30.46,71.34 l 0.55,0.86 5.92,4.79 -7.61,0.41 c -32.99,2.7 -38.91,3.69 -57.81,9.18 l -2.53,0.84 -1.13,-2.8 c -6.77,-19.19 -9.59,-27.65 -11,-53.6 -0.85,-10.15 -0.85,-20.02 -0.56,-31.02 2.25,-58.65 25.08,-87.7 38.35,-99.82 20.01,-18.33 47.09,-27.93 76.15,-26.8 54.7,2.11 72.74,42.87 90.8,82.21 v 0.42 c 0,0.14 10.14,23.13 10.14,23.13 10.42,22.28 22.01,47.1 52.74,48.23 25.66,0.83 53.58,-17.77 55.26,-60.79 1.42,-40.74 -19.44,-60.34 -29.3,-69.79 l -6.21,-5.35 h 8.17 c 26.5,0.15 34.4,0 59.49,-5.65 l 3.38,-0.84 0.29,3.67 c 0.57,6.21 1.14,9.01 3.1,23.41 l 1.42,8.17 c 1.4,9.45 4.79,29.74 4.22,44.84"
         style="fill:#231f20;fill-opacity:1;fill-rule:nonzero;stroke:none"
         id="path66" /><path
         d="m 207.09,1965.98 h 0.074 c 0.211,0 0.348,0 0.348,0 l 127.605,25.79 c 57.813,11.02 73.18,11.71 95.879,8.61 l 4.859,-0.71 -1.601,4.79 c -3.383,9.6 -6.992,19.19 -9.027,29.34 -1.911,9.58 -2.825,19.03 -3.11,29.89 l -0.058,6.07 -4.735,-3.26 c -7.972,-5.5 -13.105,-8.45 -24.883,-11.84 -8.32,-2.55 -39.265,-9.02 -66.625,-14.67 l -102.859,-20.56 c -32.848,-6.78 -70,-14.53 -94.824,2.11 -14.098,9.29 -23.199,25.37 -28.133,49.47 -9.0937,44.57 1.91,72.76 34.258,88.56 13.961,7.19 32.023,10.71 57.254,15.79 l 102.793,20.73 c 20.371,4.1 48.148,9.87 70.633,10.01 15.015,0.27 19.457,-1.42 24.757,-4.09 l 6.7,-3.25 -2.403,7.05 -0.293,1.13 c -3.73,11.29 -7.609,23.41 -10.07,35.83 -2.477,12.12 -3.457,24.8 -4.313,36.09 l -0.492,6.07 -4.644,-3.81 c -11.504,-9.59 -16.707,-14.1 -90.879,-29.89 l -121.328,-24.68 -0.5,-0.15 c -43.141,-10.16 -92.0707,-21.72 -109.5472,-69.08 -9.1016,-24.12 -7.0547,-59.81 -1.9766,-85.03 5.2852,-26.09 15.1563,-62.88 40.5313,-85.3 37.3715,-32.99 79.4575,-26.51 116.6095,-21.01"
         style="fill:#231f20;fill-opacity:1;fill-rule:nonzero;stroke:none"
         id="path68" /><path
         d="m 485.574,1637.29 c 40.317,13.4 55.754,14.68 70.574,14.97 l 4.567,0.55 -1.965,4.09 c -5.496,11 -9.668,19.61 -12.91,28.34 -5.492,14.24 -9.027,25.53 -10.649,32.99 l -1.179,5.93 -4.024,-4.52 c -7.703,-7.9 -20.586,-21.42 -101.886,-52.46 l -59.707,-22.55 -6.7,-2.82 c -22.773,-8.74 -54.703,-20.86 -78.457,-31.02 5.141,5.93 11.067,13.54 20.227,25.1 l 28.906,36.39 94.676,117.3 c 38.5,42.58 42.598,46.96 57.051,60.07 l 1.816,1.68 -1.199,1.98 c -8.957,16.37 -16.074,33.84 -19.313,42.58 -4.644,12.56 -8.027,23.7 -11.906,39.34 l -1.984,7.9 -3.66,-7.04 c -8.047,-14.39 -11.411,-20.17 -52.024,-39.34 -54.504,-25.4 -178.308,-72.76 -230.332,-86.31 -24.176,-6.19 -34.687,-6.47 -43.855,-6.76 l -5.278,-0.28 2.676,-4.51 1.203,-1.97 c 5.352,-9.02 10.5,-17.49 14.016,-27.21 3.605,-9.45 5.508,-19.76 7.555,-30.04 l 0.199,-0.71 0.781,-5.5 4.297,3.66 c 23.691,20.32 57.328,33.15 87.07,44.71 l 0.488,0.15 59.657,22.69 c 59.07,22.41 89.672,35.67 115.828,49.21 -7.113,-8.47 -15.926,-19.46 -29.051,-36.37 l -23.609,-30.03 -98.207,-122.68 c -30.887,-39.9 -35.118,-45.28 -59.082,-72.35 l -1.692,-1.68 1.406,-2.26 c 5.219,-8.17 9.036,-15.51 12.051,-23.4 3.254,-8.16 4.938,-17.2 7.129,-25.94 l 0.285,-1.98 0.907,-4.22 3.675,2.24 c 28.547,16.09 59.075,28.21 87.907,39.21 62.531,23.68 119.367,44.27 173.722,62.87"
         style="fill:#231f20;fill-opacity:1;fill-rule:nonzero;stroke:none"
         id="path70" /><path
         d="m 514.188,1455.4 c 83.972,43.17 92.566,47.11 122.453,49.92 l 5.3,0.58 -3.043,4.5 -1.128,1.41 c -6.551,9.31 -13.25,19.17 -18.457,29.04 -5.571,10.45 -9.868,21.16 -14.528,33.57 l -1.84,4.78 -3.437,-4.22 c -5.715,-7.05 -9.668,-11.56 -26.449,-23.13 -12.051,-8.45 -19.243,-12.97 -84.395,-49.63 0.145,0 -32.637,-17.47 -32.637,-17.47 -36.808,-19.46 -67.828,-35.54 -109.406,-55.28 -36.531,-17.48 -46.043,-18.34 -58.176,-19.17 l -5.574,-0.57 3.391,-4.24 c 5.996,-8.44 13.812,-18.89 19.949,-30.44 4.934,-9.31 9.102,-19.48 14.035,-33.56 l 1.84,-5.65 3.512,4.52 c 11.777,15.5 16.929,20.02 48.023,38.06 38.207,22 66.406,37.78 107.781,59.5 l 32.786,17.48"
         style="fill:#231f20;fill-opacity:1;fill-rule:nonzero;stroke:none"
         id="path72" /><path
         d="m 828.906,1196.53 5.426,0.56 5.426,1.13 -3.606,3.95 c -6.117,7.34 -12.609,14.94 -18.035,23.14 -3.515,5.06 -6.773,10.7 -9.234,16.05 -3.309,5.94 -6.004,11.29 -8.535,16.94 l -1.766,3.38 -3.164,-2.26 c -0.293,-0.56 -0.641,-0.56 -0.988,-1.12 -11.922,-10.73 -49.985,-26.24 -113.442,-45.97 0,0 -134.925,-41.45 -171.097,-52.44 30.457,41.72 39.265,53.28 93.347,122.38 l 25.375,32.71 c 19.532,25.38 29.473,38.33 38.504,49.06 20.004,24.26 30.235,27.93 34.676,29.62 0.422,0.27 0.707,0.56 1.055,0.56 l 3.949,1.69 -2.746,3.1 -0.563,0.86 c -8.047,9.29 -16.222,18.6 -23.195,28.76 -6.918,9.86 -12.758,20.58 -18.969,32.71 l -3.09,5.91 -2.406,-6.2 c -4.219,-10.16 -6.988,-14.66 -12.906,-24.82 -10.285,-16.64 -20.934,-32.14 -53.082,-76.68 l -97.008,-130.58 c -8.266,-11.86 -22.844,-31.02 -37.152,-47.95 -10.504,-12.96 -13.887,-16.35 -19.11,-21.43 l -1.621,-1.41 -2.043,-1.98 1.821,-1.96 1.714,-2.25 c 6.188,-7.34 12.539,-15.24 17.891,-23.14 6.133,-8.74 11.563,-18.6 16.074,-27.07 l 1.496,-2.53 2.676,1.12 c 37.227,15.79 51.805,20.59 104.125,35.25 67.953,19.75 123.09,34.4 173.641,45.69 39.683,9.87 60,12.98 76.562,15.22"
         style="fill:#231f20;fill-opacity:1;fill-rule:nonzero;stroke:none"
         id="path74" /><path
         d="m 735.711,843.762 c -10.871,9.301 -18.477,17.468 -22.141,21.699 -35.386,39.211 -33.91,42.871 -6.425,67.969 0,0 52.668,47.66 63.804,57.812 26.156,-27.64 40.61,-43.722 55.27,-63.453 8.828,-12.418 10.301,-17.469 12.703,-31.859 l 1.055,-7.059 4.589,5.649 c 6.332,8.449 10.993,14.082 20.368,22.269 10.574,9.582 16.765,14.09 27.214,20.863 l 7.247,4.817 -8.594,0.832 -0.766,0.289 c -7.555,0.84 -12.777,1.402 -20.238,6.191 -10.852,7.059 -25.449,23.41 -30.254,28.758 -16,17.762 -24.742,28.481 -35.391,42.301 l 37.719,34.41 c 12.414,10.99 26.938,23.7 40.684,34.97 12.543,-12.69 19.73,-20.02 31.019,-32.72 37.516,-41.17 38.356,-49.34 35.387,-71.059 l -1.402,-10.16 6.629,7.34 c 6.191,6.781 11.414,12.141 17.472,17.759 4.938,4.25 10.016,8.47 15.242,12.42 3.383,2.82 6.75,5.65 10.43,8.74 l 2.547,2.26 -2.262,2.25 c -24.113,24.55 -52.039,53.31 -75.867,79.81 -31.93,35.26 -43,49.91 -48.863,58.08 l -0.907,1.14 -2.675,3.67 -2.532,-3.95 c -16.582,-27.93 -27.015,-37.79 -70.574,-78.11 l -2.605,-2.55 -92.582,-83.76 c -22.41,-20.021 -48.278,-42.86 -71.617,-57.79 -9.243,-5.649 -15.379,-8.75 -25.883,-12.711 l -4.715,-1.387 3.808,-3.672 c 19.458,-17.218 33.348,-32.73 63.801,-66.269 l 1.129,-1.141 c 28.125,-31.289 45.254,-52.168 56.594,-66.281 3.68,-4.488 6.699,-8.168 9.394,-10.988 l 1.821,-2.532 2.254,1.7 c 21.082,14.671 26.871,18.031 54.011,30.171 l 9.868,4.231 -10.579,1.691 c -15.851,2.258 -29.25,4.508 -55.187,27.36"
         style="fill:#231f20;fill-opacity:1;fill-rule:nonzero;stroke:none"
         id="path76" /><path
         d="m 1085.6,886.051 26.65,-20.301 c 18.89,-15.809 29.32,-32.437 30.72,-49.078 1.14,-14.383 -4.36,-29.031 -16.63,-43.41 -4.94,-5.93 -20.45,-23.981 -47.78,-25.391 -26.8,-0.851 -46.26,15.5 -60.64,27.629 -6.78,5.641 -10.73,9.32 -16.37,15.242 l 35.54,42.008 0.85,1.129 c 17.35,20.312 25.65,30.18 47.66,52.172 z m 86.7,-151.711 c 21.3,25.101 31.17,49.91 29.2,73.301 -3.1,37.25 -34.4,63.468 -51.33,77.839 -10.02,8.2 -19.73,16.372 -28.2,22.852 -6.48,5.078 -11.85,9.59 -16.35,13.25 -28.49,23.969 -32.71,29.059 -42.03,40.039 l -3.52,4.231 -1.83,-5.352 c -6.21,-19.461 -25.67,-48.219 -59.361,-88.27 L 941.5,804.281 c -43.164,-50.48 -70.504,-81.801 -86.797,-97.301 -12.125,-10.71 -16.91,-12.121 -23.191,-14.101 l -0.91,-0.277 -6.059,-1.973 5.133,-3.668 c 10.648,-7.332 20.879,-14.66 29.89,-22.563 9.317,-7.898 18.204,-16.367 26.793,-24.816 l 0.786,-0.852 4.152,-3.949 1.125,5.641 0.348,0.84 c 1.71,7.629 3.109,13.547 10.937,26.23 8.594,13.547 18.332,26.797 41.449,55.848 0,0 23.828,27.91 31.024,36.371 l 27.06,-23.969 c -0.27,-18.89 -0.98,-32.98 -12.388,-89.972 -4.664,-23.379 -10.45,-49.911 -18.899,-76.118 l -0.566,-1.98 1.695,-1.41 7.461,-5.071 c 10.309,-7.609 16.789,-12.121 25.527,-19.742 9.32,-7.629 16.49,-15.23 22.99,-22.277 l 6.62,-7.332 -1.12,9.59 c -3.39,27.359 -0.57,45.129 6.9,93.062 l 0.28,1.688 c 0,0 11.42,70.211 14.24,87.699 24.25,-9.859 78.68,-14.098 116.32,30.461"
         style="fill:#231f20;fill-opacity:1;fill-rule:nonzero;stroke:none"
         id="path78" /><path
         d="m 1319.79,567.672 c -0.13,0 -13.11,21.449 -13.11,21.449 -12.27,20.859 -26.21,44.828 -9.57,70.77 13.79,21.148 45.1,33.839 81.35,10.429 34.68,-22 38.77,-51.32 40.61,-63.73 l 0.98,-8.469 4.52,6.781 c 15.07,21.977 19.88,28.477 38.62,45.399 l 2.83,2.82 -2.83,2.25 c -4.51,3.66 -6.48,5.641 -15.36,14.109 l -8.19,7.321 -0.15,0.281 c -7.88,7.348 -21.84,20.867 -34.11,28.77 -63.17,40.339 -128.59,31.308 -163.14,-22.551 -28.2,-44 -10.85,-78.68 0.56,-101.238 0.15,0 21.87,-38.641 21.87,-38.915 l 0.29,-0.289 c 14.51,-24.546 29.74,-49.617 13.38,-75.019 -7.19,-11.559 -18.19,-19.168 -30.87,-22 -16.79,-3.942 -36.1,1.14 -56.13,13.82 -37.5,24.25 -39.61,46.262 -41.17,65.988 v 0.571 l -0.84,7.601 -4.81,-5.64 c -20.86,-25.649 -25.23,-29.59 -40.31,-42.289 l -2.27,-1.981 1.7,-2.258 c 11.7,-16.05 17.2,-23.382 37.52,-39.754 8.86,-6.777 16.91,-12.406 25.37,-17.769 49.35,-31.848 86.43,-29.59 104.05,-25.379 26.23,5.648 49.5,22.559 65.15,46.82 29.6,46.243 6.63,84.332 -15.65,121.532 l -0.29,0.57"
         style="fill:#231f20;fill-opacity:1;fill-rule:nonzero;stroke:none"
         id="path80" /><path
         d="m 1615.05,586.559 -4.79,1.703 -2.67,1.117 c -10.3,3.953 -21.15,7.621 -31.02,12.98 -10.87,5.352 -21.15,12.403 -31.31,18.891 l -4.52,3.102 -0.28,-5.352 c -0.55,-9.02 -0.99,-15.508 -8.04,-34.41 -4.93,-13.82 -8.61,-21.719 -40.46,-88.82 l -16.93,-33.008 c -18.75,-37.211 -35.1,-68.223 -57.67,-108.27 -19.88,-34.972 -27.2,-41.191 -36.51,-49.09 l -4.52,-3.652 5.64,-1.398 c 9.32,-3.122 21.86,-7.633 33.71,-13.551 11.69,-6.199 22.41,-13.25 30.73,-19.731 l 4.66,-3.109 0.27,5.918 c 0.86,19.18 2.26,25.371 17.5,58.383 18.46,39.769 32.71,68.801 54.13,110.539 l 16.65,33.281 c 44.12,83.457 48.64,91.637 71.48,111.117 l 3.95,3.36"
         style="fill:#231f20;fill-opacity:1;fill-rule:nonzero;stroke:none"
         id="path82" /><path
         d="m 1826.14,443.02 c 42.14,-17.469 46.09,-20.579 58.78,-39.481 l 4.09,-5.91 1.55,7.043 c 2.26,10.16 4.79,19.187 7.9,27.367 3.52,8.731 7.9,17.762 13.25,27.621 l 1.99,3.102 -3.68,1.41 c -35.24,10.437 -70.78,23.699 -132.67,47.668 -64.43,24.531 -109.71,42.582 -121.68,50.211 l -3.67,2.519 -1.13,-4.519 c -0.85,-3.379 -1.56,-6.469 -2.25,-9.86 -1.84,-7.632 -3.39,-14.101 -6.21,-21.152 -3.11,-8.469 -7.9,-16.367 -12.69,-23.68 l -4.37,-7.058 7.89,2.539 c 17.91,5.082 26.52,5.91 63.58,-7.899 0,0 29.62,-11.289 38.65,-14.949 -6.77,-22.84 -17.2,-54.422 -51.32,-143.242 C 1634.93,207 1621.82,199.391 1617.02,196.551 l -0.28,-0.551 -6.2,-3.668 7.06,-1.703 2.53,-0.828 c 11.85,-3.391 23.41,-6.211 34.68,-10.43 10.99,-4.25 22.01,-9.601 31.73,-15.519 l 5.22,-3.102 -0.56,6.199 c -0.86,7.602 -1.28,12.692 2.82,30.18 6.48,27.902 25.23,78.383 42.85,123.781 26.5,69.102 40.88,103.512 54.99,135.371 l 34.28,-13.261"
         style="fill:#231f20;fill-opacity:1;fill-rule:nonzero;stroke:none"
         id="path84" /><path
         d="m 2035.52,306.832 0.27,-3.684 c 0,-0.277 2.82,-67.679 3.68,-84.859 -15.38,2.801 -31.16,5.91 -46.26,9.293 -15.8,4.231 -31.58,9.02 -45.69,13.25 l 88.15,145.797 -0.15,-8.457 c -0.86,-31.031 -0.57,-44.012 0,-71.34 z m 69.37,-208.6914 c -1.12,9.8594 -2.13,23.1214 -2.97,35.5394 -0.98,12.41 -1.84,25.929 -2.94,35.82 0,-0.301 -9.03,140.152 -9.03,140.152 -3.24,51.309 -3.39,68.52 -1.42,107.161 v 2.796 l -2.83,0.571 c -13.52,1.422 -25.65,3.121 -37.35,6.211 -12.83,3.101 -25.81,8.172 -37.23,12.121 l -2.81,1.129 -0.99,-2.821 c -7.05,-16.351 -12.98,-28.48 -39.48,-71.629 l -90.53,-146.632 c -38.77,-62.329 -45.55,-70.508 -70.21,-95.879 l -4.52,-4.508 6.48,-0.84 c 11.29,-1.141 22,-2.551 32.15,-4.812 10.85,-2.528 20.87,-6.77 31.02,-10.7 l 3.39,-1.718 0.56,4.25 c 0.86,4.777 1.13,6.199 1.84,8.73 1.55,6.207 3.24,9.309 22.7,45.969 l 1.97,3.39 c 0,0 15.92,28.481 20.31,36.09 h 0.28 c 21.29,-3.949 41.32,-7.039 61.47,-12.121 18.19,-4.789 36.81,-10.16 55.97,-16.64 l 2.12,-48.508 c 0.43,-18.321 0.71,-35.5315 -1.4,-44.8401 -0.84,-2.8203 -1.97,-5.9219 -3.25,-8.1719 -0.27,-1.1289 -0.7,-2.2578 -0.98,-2.8281 l -1.69,-3.9414 4.22,-0.2813 c 10.01,-1.1289 23.12,-2.539 36.37,-5.6367 10.72,-2.5312 22.16,-6.4922 36.12,-12.1211 l 8.44,-3.6797 -4.51,7.6289 c -4.79,9.0117 -8.59,15.2188 -11.27,50.75"
         style="fill:#231f20;fill-opacity:1;fill-rule:nonzero;stroke:none"
         id="path86" /><path
         d="m 2408.6,367.172 -8.17,2.258 c -9.32,3.09 -28.76,9.011 -43.85,10.722 -74.31,8.168 -128.74,-29.05 -135.78,-92.781 -5.65,-51.902 25.08,-75.019 45.54,-90.242 0.13,-0.289 36.52,-24.828 36.66,-24.828 l 0.42,-0.281 c 23.83,-15.79 48.79,-31.868 45.53,-61.469 -1.53,-13.5315 -8.03,-25.1018 -18.17,-33.5588 -13.4,-10.7109 -32.73,-14.9414 -56.14,-12.4219 -44.54,4.8086 -56.1,23.9805 -66.26,40.6207 l -0.56,0.559 -3.96,6.77 -1.69,-7.329 c -7.34,-32.1519 -9.3,-37.7691 -17.47,-55.8394 l -1.13,-2.5391 2.53,-1.4102 c 17.91,-9.5937 26.08,-13.5234 51.33,-18.8906 9.87,-1.9609 20.03,-3.3906 30.58,-4.7929 58.38,-6.4805 90.53,11.832 104.5,23.4101 21.15,16.3516 34.4,42.0117 37.78,71.0621 5.92,54.418 -31.85,78.391 -68.24,102.098 h -0.56 l -21.16,13.25 c -20.29,13.25 -43.43,28.762 -40.05,59.223 1.43,13.25 8.2,25.367 18.48,33.828 12.54,9.871 29.76,14.101 49.5,11.84 40.88,-4.231 57.1,-28.2 64.86,-39.2 l 4.79,-6.769 0.85,7.898 c 3.95,26.231 5.08,33.84 14.38,58.09 l 1.4,3.391 -3.53,0.84 c -6.34,1.121 -8.59,2.25 -22.41,6.492"
         style="fill:#231f20;fill-opacity:1;fill-rule:nonzero;stroke:none"
         id="path88" /><path
         d="m 2742.35,163 36.51,166.379 2.55,-8.18 c 9.02,-29.609 13.53,-41.168 23.12,-67.109 l 1.4,-3.66 c 0,0 24.83,-63.45 30.75,-79.25 -15.24,-2.258 -31.29,-4.528 -46.53,-5.649 -15.78,-1.679 -31.3,-1.961 -47.8,-2.531 z m 195.28,-84.0312 c -4.22,9.0117 -9.59,20.871 -14.37,32.7112 -5.08,11.57 -10.16,23.691 -14.11,32.718 0,-0.289 -53.85,129.723 -53.85,129.723 -18.9,45.399 -25.1,61.738 -36.39,100.949 l -0.56,2.832 -3.1,-0.593 c -11.85,-2.528 -24.82,-5.059 -36.95,-6.188 -12.96,-1.129 -25.94,-0.851 -39.47,-0.289 h -2.84 l -0.27,-3.09 c -1.25,-18.613 -3.1,-31.883 -14.23,-80.371 L 2683.28,119.289 C 2667.06,50.7695 2663.52,38.6406 2647.74,5.64844 L 2645.04,0 l 5.94,1.69141 c 11.14,2.26953 21.99,4.52734 32.3,5.35937 11.14,1.42188 22.27,0.5586 32.71,0 h 3.95 L 2719.09,11 c -0.72,4.5117 -0.99,5.9219 -1.26,8.7617 -0.44,6.4688 0,9.5703 6.75,51.3086 l 0.71,3.3906 c 0,0 6.06,31.8481 7.61,40.6091 h 0.86 c 21.42,3.379 41.16,6.75 62.04,8.45 19.16,1.421 38.91,2.25 57.79,2.25 l 17.76,-45.3989 c 6.51,-16.9297 12.15,-33.2813 12.98,-42.3008 0.57,-3.1015 0,-6.1914 0,-9.0117 0,-1.1367 -0.27,-1.9883 -0.27,-3.3867 l -0.28,-3.9531 4.21,0.8437 c 14.39,3.668 25.67,5.9297 36.12,6.7695 10.99,0.8399 23.12,0.8399 38.34,-0.2734 l 9.03,-0.5664 -6.78,5.918 c -7.6,6.7812 -12.96,11.8515 -27.07,44.5586"
         style="fill:#231f20;fill-opacity:1;fill-rule:nonzero;stroke:none"
         id="path90" /><path
         d="m 3075.26,246.75 c -2.54,11.289 -12.42,53.871 -12.42,53.871 -6.2,27.07 -8.73,38.918 -13.82,70.211 l 32.15,9.32 c 24.25,5.348 43.71,4.219 57.82,-5.082 12.41,-7.328 20.59,-20.578 24.8,-38.91 1.99,-7.629 7.35,-30.461 -8.17,-53.578 -14.94,-22.012 -40.05,-27.93 -58.38,-31.871 -8.17,-2.262 -13.82,-3.121 -21.98,-3.961 z m 164.39,-72.469 c 0,0 -49.91,51.321 -62.04,64.008 22.57,13.27 58.66,54.43 45.13,111.68 -22.84,98.402 -98.43,80.933 -134.5,72.191 -12.71,-2.82 -24.27,-5.93 -34.41,-8.73 -8.46,-1.989 -15.24,-3.95 -21.15,-5.09 -36.39,-8.75 -42.87,-9.02 -57.25,-9.879 l -5.65,-0.551 3.39,-4.508 c 11.85,-16.64 23.41,-49.363 35.24,-100.113 l 20.32,-86.859 c 15.21,-66.84 23.97,-105.739 25.93,-127.4612 1.7,-16.0665 0,-21.1485 -2.25,-27.0704 l -0.29,-0.8476 -1.97,-5.9219 5.94,1.9609 c 11.83,3.6797 23.95,7.3516 35.8,10.4297 11.27,2.2696 22.85,3.961 33.85,5.9219 l 3.38,0.8594 5.64,0.8515 -3.39,3.9375 -1.12,1.129 c -5.08,5.6406 -9.03,10.7226 -14.38,24.5312 -5.93,14.949 -10.73,31.32 -20.02,66.281 0.27,0 -8.2,35.52 -11,46.528 l 35.8,7.343 c 14.66,-11.293 25.38,-20.32 64.57,-63.172 16.09,-18.05 34.4,-38.648 49.92,-60.9292 l 1.42,-1.961 2.25,0.8321 7.9,2.8203 c 12.4,3.6875 20.03,6.207 31.59,8.7378 10.43,2.551 20.3,3.961 31.58,5.079 l 9.58,0.863 -8.45,4.789 c -23.97,14.109 -36.95,27.359 -71.36,62.32"
         style="fill:#231f20;fill-opacity:1;fill-rule:nonzero;stroke:none"
         id="path92" /><path
         d="m 3652.78,289.332 c -14.08,28.199 -29.33,65.43 -47.09,108.859 l -0.84,2.25 -15.23,37.5 c -14.1,37.52 -29.6,79.539 -36.65,106.879 -3.96,13.84 -4.51,21.442 -5.64,30.481 l -0.29,2.25 -0.3,4.789 -4.21,-2.531 -3.67,-1.707 c -9.29,-5.063 -18.33,-10.153 -27.92,-14.09 -10.99,-4.231 -22.85,-7.61 -34.12,-10.43 l -0.55,-0.57 -5.08,-1.121 3.38,-3.68 c 8.74,-9.582 15.51,-16.922 32.14,-52.441 5.08,-10.731 9.6,-21.43 14.96,-33.848 l 7.31,-16.93 c 0,0 7.06,-17.183 9.59,-24.242 l -12.39,-5.348 c -20.02,-9.043 -37.52,-16.652 -56.69,-24.55 -23.98,-9.571 -47.09,-18.332 -71.91,-27.071 v 0 l -8.19,20.028 c -8.44,20.589 -23.41,58.941 -29.88,83.461 -3.66,15.242 -3.39,22.582 -3.39,31.32 l 0.29,1.121 0.28,5.348 -5.08,-2.528 -1.68,-0.859 c -9.89,-5.352 -19.75,-10.703 -30.74,-15.5 -10.73,-3.93 -22.29,-7.32 -33.29,-10.43 l -1.39,-0.281 -5.37,-1.41 3.94,-3.961 c 5.09,-5.078 11.29,-11.551 25.95,-39.188 11.55,-23.683 25.1,-56.121 39.77,-91.093 l 14.93,-36.938 c 13.54,-33.539 26.52,-65.141 40.9,-108.289 9.59,-28.473 9.59,-36.102 8.74,-50.75 l -0.28,-5.371 4.52,2.551 1.4,0.57 c 10.72,5.637 21.72,11.547 32.42,16.07 11.29,4.789 23.14,7.879 35.27,11 l 5.07,1.688 -3.95,3.941 c -11.85,11.27 -20.88,19.461 -56.41,106.051 0,-0.301 -12.4,30.719 -16.05,40.309 25.64,11.851 48.78,22.558 70.48,31.019 19.75,8.18 40.61,16.082 69.94,25.942 l 16.36,-41.172 c 21.16,-56.399 32.43,-87.418 33.55,-115.051 v -5.078 l 4.8,2.531 c 11.27,6.5 22,12.117 32.72,16.637 10.43,4.511 21.42,7.34 32.71,10.16 l 1.67,0.562 5.1,1.399 -3.96,3.969 c -6.76,6.191 -12.96,12.132 -25.95,37.773"
         style="fill:#231f20;fill-opacity:1;fill-rule:nonzero;stroke:none"
         id="path94" /><path
         d="m 3896.73,672.012 c -29.61,50.468 -35.83,64.859 -40.61,86.847 l -1.43,5.371 -3.65,-3.39 c -7.9,-6.481 -16.07,-13.25 -24.54,-18.891 -8.47,-4.789 -16.35,-8.469 -27.34,-12.98 l -5.37,-1.957 4.79,-3.391 c 8.18,-5.652 12.41,-9.582 19.45,-19.469 5.08,-7.043 22.58,-34.402 36.4,-57.523 l 54.97,-89.387 c 17.22,-28.48 37.25,-61.203 30.19,-89.972 -4.23,-16.629 -15.8,-30.45 -36.95,-43.141 -38.91,-23.957 -69.08,-23.117 -95.04,1.992 -11.29,10.43 -20.86,26.211 -34.4,48.219 l -54.42,89.379 c -11,18.051 -25.95,42.031 -33.83,63.16 -5.1,13.543 -5.1,18.621 -4.81,24.273 l 0.84,7.328 -5.62,-4.238 -0.3,-0.273 c -9.59,-7.61 -19.73,-15.508 -30.72,-22.278 -10.16,-6.211 -20.89,-10.992 -32.44,-16.339 l -5.64,-2.551 5.37,-2.821 c 12.96,-7.621 18.89,-11 58.92,-75.3 l 64.31,-105.739 c 0.27,-0.289 0.55,-0.589 0.55,-0.589 24.54,-36.93 51.9,-78.942 102.38,-78.942 25.94,-0.281 58.65,13.809 80.37,27.07 22.84,13.809 54.13,35.532 66.55,67.379 18.04,45.993 -2.26,83.493 -20.3,116.473 0,0.289 -67.68,111.68 -67.68,111.68"
         style="fill:#231f20;fill-opacity:1;fill-rule:nonzero;stroke:none"
         id="path96" /><path
         d="m 4107.38,761.969 -0.56,-0.27 -24.27,-6.207 c -23.68,-4.801 -50.75,-10.722 -70.48,12.957 -16.1,19.762 -18.06,53.301 14.93,80.942 31.87,25.941 60.07,21.148 73.61,18.621 l 7.61,-1.422 -5.08,6.48 c -16.07,21.45 -20.59,27.352 -31.29,50.5 l -1.42,3.379 -2.83,-1.707 c -5.07,-3.371 -7.33,-4.793 -17.47,-10.433 l -10.43,-5.348 c -8.74,-4.52 -26.79,-14.391 -38.08,-23.981 -30.73,-25.078 -49.35,-56.101 -52.44,-87.699 -2.26,-26.511 5.91,-52.441 23.68,-74.16 33.28,-40.32 71.35,-34.41 96.44,-30.742 0.3,0 43.72,9.019 43.72,9.019 0.28,0 0.28,0 0.28,0 27.91,6.504 56.69,12.981 75.86,-10.136 8.46,-10.453 12.68,-23.133 11.28,-36.102 -1.69,-17.199 -12.12,-34.129 -30.45,-49.07 -34.13,-28.488 -56.13,-23.391 -75.02,-19.168 l -1.13,0.558 -7.61,1.399 4.23,-6.477 c 18.05,-27.363 20.85,-32.98 27.62,-51.332 l 1.43,-2.531 2.82,0.563 c 19.17,6.488 27.63,9.589 49.05,23.98 9.04,5.918 16.94,11.84 24.84,18.328 45.4,37.5 54.69,73.031 56.39,91.36 2.53,26.8 -6.21,53.859 -24.83,76.421 -34.68,42.008 -78.11,31.879 -120.4,22.278"
         style="fill:#231f20;fill-opacity:1;fill-rule:nonzero;stroke:none"
         id="path98" /><path
         d="m 4380.35,829.93 c -31.29,29.05 -54.42,51.609 -88.82,85.441 l -26.23,26.238 c -65.71,67.681 -72.2,74.451 -83.48,102.081 l -1.97,4.79 -3.38,-4.23 -0.57,-0.83 c -7.34,-9.03 -14.95,-18.35 -23.12,-26.52 -8.73,-9.02 -18.9,-16.92 -27.63,-23.681 l -4.25,-3.387 4.8,-2.262 c 8.46,-3.09 14.1,-5.351 30.17,-18.05 11.86,-9.29 17.78,-14.391 72.5,-66.27 0,0.289 26.21,-25.941 26.21,-25.941 29.89,-29.618 54.43,-54.7 85.15,-88.27 27.37,-29.887 31.04,-38.348 35.27,-49.918 l 2.25,-5.351 3.1,4.519 c 5.93,8.441 13.82,19.16 23.13,28.203 7.61,7.328 16.08,14.649 28.21,23.387 l 4.51,3.113 -5.37,2.258 c -18.31,6.77 -24.25,10.152 -50.48,34.68"
         style="fill:#231f20;fill-opacity:1;fill-rule:nonzero;stroke:none"
         id="path100" /><path
         d="m 4608.49,1091.62 -5.64,9.03 v -10.71 c 0,-16.09 0,-29.61 -18.61,-58.37 -7.33,-12.42 -14.11,-20.88 -17.76,-25.39 -33.28,-41.168 -37.23,-40.028 -66.55,-16.918 0,0 -55,44.268 -66.85,54.158 22.84,29.88 36.39,46.23 53.87,64.01 11.28,10.72 15.8,13.25 29.62,17.47 l 6.77,2.54 -6.22,3.1 c -9.29,5.37 -15.8,9.32 -25.09,16.94 -12.13,9.57 -17.48,15.5 -25.11,23.68 l -5.63,6.49 0.55,-8.75 v -0.57 c 0.29,-7.6 0.57,-12.69 -3.09,-21.15 -5.36,-11.56 -19.18,-28.77 -23.69,-34.12 -15.8,-19.45 -25.39,-29.88 -36.38,-41.74 l -40.05,32.15 c -12.67,10.43 -27.07,22.85 -40.6,34.68 10.16,13.84 16.35,22.28 27.35,35.83 34.97,43.13 42.87,45.4 64.88,45.96 h 9.86 l -7.9,5.64 c -8.46,5.35 -14.11,9.31 -20.32,14.39 -5.35,4.23 -10.14,8.46 -14.92,13.52 -3.12,2.55 -6.5,5.37 -9.88,8.47 l -2.53,2.25 -1.98,-2.53 c -17.49,-23.41 -43.15,-57.82 -67.13,-87.42 -29.59,-36.66 -42.85,-49.91 -49.91,-56.97 l -1.13,-1.13 -3.1,-3.38 4.23,-1.98 c 30.47,-12.11 40.61,-20.01 89.12,-58.08 l 1.97,-1.69 97.3,-78.409 c 23.12,-19.449 49.91,-41.172 67.95,-62.031 7.06,-7.899 11,-13.82 16.64,-23.68 l 2.55,-4.25 2.8,4.25 c 14.39,22.551 27.65,38.91 56.69,74.988 25.96,31.872 44,51.902 56.12,65.432 3.95,4.51 7.34,8.47 10.16,11.57 l 1.69,1.97 -1.98,1.97 c -17.48,18.35 -21.99,23.7 -38.07,48.78"
         style="fill:#231f20;fill-opacity:1;fill-rule:nonzero;stroke:none"
         id="path102" /><path
         d="m 4784.74,1443.27 c -56.69,33.29 -108.28,64.89 -157.35,96.45 -35.83,23.14 -46.82,34.13 -56.12,45.13 l -3.39,3.39 -1.97,-3.96 -0.56,-0.83 c -4.22,-9.6 -8.74,-18.9 -13.25,-26.5 -7.9,-13.27 -14.38,-23.15 -19.19,-29.07 l -3.95,-4.8 5.94,-0.55 c 11.26,-0.85 29.88,-2.54 104.9,-46.54 l 54.71,-32.42 1.12,-0.57 c 21.15,-12.41 53.87,-31.87 78.68,-44.83 -7.9,0.27 -17.77,0.27 -32.71,0 h -46.26 l -150.3,0.84 h -1.68 c -56.41,3.39 -62.33,3.68 -81.23,6.76 l -2.82,0.3 -0.56,-2.26 c -7.61,-18.35 -17.47,-35.26 -21.16,-41.46 -6.76,-11.56 -13.54,-21.43 -23.4,-33.84 l -4.79,-6.21 7.9,0.86 c 15.51,2.81 22.84,4.22 62.87,-15.79 54.16,-26.79 168.64,-93.91 211.52,-126.06 20.02,-14.95 26.79,-22.85 32.97,-29.62 l 3.39,-4.21 1.69,5.07 0.57,1.69 c 3.95,10.14 7.33,19.45 12.7,28.47 5.07,8.47 11.84,16.37 18.61,24.54 l 0.56,0.57 3.39,4.22 -4.8,0.56 c -31.29,6.21 -62.61,24.54 -89.94,40.89 l -55.3,32.15 c -54.13,31.87 -83.45,47.38 -110.54,60.07 11.01,-0.57 25.66,-0.57 47.38,-0.28 l 37.23,0.28 c -0.3,0 157.35,0.29 157.35,0.29 50.2,0.57 56.69,0.27 93.35,-1.13 l 2.25,-0.29 1.14,2.26 c 2.82,9.32 5.91,16.63 10.7,23.97 4.51,7.91 10.16,14.95 16.08,22.28 l 0.84,1.13 2.55,2.83 -3.67,1.96 c -30.73,12.12 -58.94,28.48 -85.45,44.26"
         style="fill:#231f20;fill-opacity:1;fill-rule:nonzero;stroke:none"
         id="path104" /><path
         d="m 4906.56,1745.02 c -50.46,20.86 -83.74,-9.03 -116.17,-37.5 l -0.57,-0.29 -18.62,-17.06 c -18.31,-15.93 -39.76,-33.4 -67.96,-21.98 -12.12,4.64 -22.28,14.94 -27.36,26.92 -6.19,14.82 -5.64,32.29 1.99,50.9 15.78,38.08 42.87,47.24 55.83,51.47 l 7.6,2.53 -7.31,3.39 c -24.83,10.72 -31.31,14.39 -51.9,29.62 l -2.83,1.96 -1.69,-2.82 c -3.09,-5.08 -4.21,-7.33 -9.86,-16.07 l -7.05,-11 c -5.35,-8.17 -16.63,-25.1 -22.57,-39.21 -28.18,-69.08 -7.31,-131.68 51.9,-155.93 48.51,-19.73 78.95,3.38 99.56,18.89 l 34.11,28.35 0.29,0.42 c 21.7,18.61 43.69,38.2 71.61,27.07 12.41,-5.35 21.99,-14.95 27.09,-26.65 6.75,-15.93 5.63,-35.66 -3.39,-57.67 -16.92,-41.45 -38.35,-47.09 -57.24,-52.45 l -1.14,-0.29 -7.33,-1.96 6.77,-3.68 c 28.77,-16.08 33.85,-19.45 49.06,-32.15 l 1.98,-1.96 1.97,2.25 c 13.81,14.39 20.03,21.15 32.14,43.99 4.81,9.31 9.33,18.05 13.26,27.91 22.01,54.73 13.54,90.53 6.21,107.17 -10.14,24.96 -31.02,44.54 -58.38,55.83"
         style="fill:#231f20;fill-opacity:1;fill-rule:nonzero;stroke:none"
         id="path106" /><path
         d="m 4997.09,1894.5 c -42.02,11.12 -73.04,19.87 -118.44,33.27 l -35.82,10.43 c -88.27,27.63 -98.98,31.31 -122.09,50.06 l -4.25,3.51 -0.83,-5.2 c -1.7,-11.85 -3.95,-23.83 -7.34,-35.54 -3.38,-11.7 -8.18,-22.84 -12.98,-33.69 l -0.28,-0.29 -1.96,-5.08 5.35,0.42 c 9.31,1.27 15.23,1.98 35.25,-1.55 14.67,-2.39 21.99,-4.1 95.04,-23.69 -0.3,0 35.24,-10.43 35.24,-10.43 40.32,-12.14 74.18,-22.55 117.03,-37.22 38.09,-13.26 45.7,-19.46 54.99,-27.21 l 4.25,-3.66 0.54,5.49 c 1.99,14.38 3.95,25.38 7.07,35.81 3.38,12.12 9.02,23.97 13.52,33.7 l 2.55,5.22 -5.94,-0.56 c -18.87,-2.83 -25.93,-2.68 -60.9,6.21"
         style="fill:#231f20;fill-opacity:1;fill-rule:nonzero;stroke:none"
         id="path108" /><path
         d="m 5026.14,2221.74 c -53.58,10.01 -80.67,-25.52 -106.6,-60.06 l -0.28,-0.56 -15.23,-20.17 c -14.94,-19.17 -31.88,-40.89 -62.04,-35.24 -25.1,4.78 -48.51,29.05 -40.32,71.63 7.61,40.32 32.42,54.41 44.27,61.47 l 6.77,3.96 -7.63,1.69 c -26.5,5.91 -33.54,7.6 -56.67,18.89 l -3.1,1.4 -1.41,-3.23 c -1.98,-6.07 -2.55,-8.32 -7.9,-21.3 l -3.09,-8.74 c -3.97,-8.89 -11.29,-27.93 -14.12,-42.87 -7.6,-38.77 -1.68,-74.58 16.37,-100.67 14.66,-22.28 37.5,-36.66 65.43,-41.74 51.31,-9.87 76.69,19.17 93.61,38.35 0,0 27.92,34.41 27.92,34.56 l 0.56,0.41 c 16.93,22.85 34.41,46.27 64.3,40.62 13.27,-2.55 24.53,-9.87 31.87,-20.59 9.87,-14.25 12.42,-34.14 8.45,-56.96 -8.74,-44 -28.48,-54.16 -45.95,-62.89 l -0.86,-0.57 -6.76,-3.38 7.33,-2.26 c 31.86,-9.86 36.93,-12.41 54.14,-21.72 l 2.55,-1.4 1.69,2.53 c 10.72,16.93 15.21,24.81 22.55,49.64 3.09,10.58 5.36,20.3 7.62,29.9 10.72,57.93 -5.07,91.5 -15.23,106.3 -15.51,22.28 -39.48,37.5 -68.24,43"
         style="fill:#231f20;fill-opacity:1;fill-rule:nonzero;stroke:none"
         id="path110" /></g></g></svg>
