<?xml version="1.0" encoding="UTF-8" standalone="no"?>
<svg
   xmlns:dc="http://purl.org/dc/elements/1.1/"
   xmlns:cc="http://creativecommons.org/ns#"
   xmlns:rdf="http://www.w3.org/1999/02/22-rdf-syntax-ns#"
   xmlns:svg="http://www.w3.org/2000/svg"
   xmlns="http://www.w3.org/2000/svg"
   viewBox="0 0 983.73999 983.73999"
   height="983.73999"
   width="983.73999"
   xml:space="preserve"
   id="svg2"
   version="1.1"><metadata
     id="metadata8"><rdf:RDF><cc:Work
         rdf:about=""><dc:format>image/svg+xml</dc:format><dc:type
           rdf:resource="http://purl.org/dc/dcmitype/StillImage" /></cc:Work></rdf:RDF></metadata><defs
     id="defs6" /><g
     transform="matrix(1.3333333,0,0,-1.3333333,0,983.74)"
     id="g10"><g
       transform="translate(368.902,368.902)"
       id="g12"><g
         id="g14"><g
           id="g16"><g
             id="g18"><path
               id="path20"
               style="fill:#fff200;fill-opacity:1;fill-rule:nonzero;stroke:#fff200;stroke-width:0.3985;stroke-linecap:butt;stroke-linejoin:miter;stroke-miterlimit:10;stroke-dasharray:none;stroke-opacity:1"
               d="M 14.17339,0 C 14.17339,7.82784 7.82784,14.17339 0,14.17339 -7.82784,14.17339 -14.17339,7.82784 -14.17339,0 c 0,-7.82784 6.34555,-14.17339 14.17339,-14.17339 7.82784,0 14.17339,6.34555 14.17339,14.17339 z" /></g><g
             id="g22"><path
               id="path24"
               style="fill:none;stroke:#000000;stroke-width:0.79701;stroke-linecap:butt;stroke-linejoin:miter;stroke-miterlimit:10;stroke-dasharray:none;stroke-opacity:1"
               d="m 56.69362,0 c 0,31.31142 -25.3822,56.69362 -56.69362,56.69362 -31.31142,0 -56.69362,-25.3822 -56.69362,-56.69362 0,-31.31142 25.3822,-56.69362 56.69362,-56.69362 31.31142,0 56.69362,25.3822 56.69362,56.69362 z" /></g><g
             id="g26"><path
               id="path28"
               style="fill:none;stroke:#000000;stroke-width:0.79701;stroke-linecap:butt;stroke-linejoin:miter;stroke-miterlimit:10;stroke-dasharray:none;stroke-opacity:1"
               d="M 85.04042,0 C 85.04042,46.96713 46.96713,85.04042 0,85.04042 -46.96713,85.04042 -85.04042,46.96713 -85.04042,0 c 0,-46.96713 38.07329,-85.04042 85.04042,-85.04042 46.96713,0 85.04042,38.07329 85.04042,85.04042 z" /></g><g
             id="g30"><path
               id="path32"
               style="fill:none;stroke:#000000;stroke-width:0.79701;stroke-linecap:butt;stroke-linejoin:miter;stroke-miterlimit:10;stroke-dasharray:none;stroke-opacity:1"
               d="M 113.38724,0 C 113.38724,62.62283 62.62283,113.38724 0,113.38724 -62.62283,113.38724 -113.38724,62.62283 -113.38724,0 c 0,-62.62283 50.76441,-113.38724 113.38724,-113.38724 62.62283,0 113.38724,50.76441 113.38724,113.38724 z" /></g><g
             id="g34"><path
               id="path36"
               style="fill:none;stroke:#000000;stroke-width:0.79701;stroke-linecap:butt;stroke-linejoin:miter;stroke-miterlimit:10;stroke-dasharray:none;stroke-opacity:1"
               d="M 147.40332,0 C 147.40332,81.40964 81.40964,147.40332 0,147.40332 -81.40964,147.40332 -147.40332,81.40964 -147.40332,0 c 0,-81.40964 65.99368,-147.40332 147.40332,-147.40332 81.40964,0 147.40332,65.99368 147.40332,147.40332 z" /></g><g
             id="g38"><path
               id="path40"
               style="fill:none;stroke:#000000;stroke-width:0.79701;stroke-linecap:butt;stroke-linejoin:miter;stroke-miterlimit:10;stroke-dasharray:none;stroke-opacity:1"
               d="m 184.25424,0 c 0,101.76212 -82.49212,184.25424 -184.25424,184.25424 -101.76212,0 -184.25424,-82.49212 -184.25424,-184.25424 0,-101.76212 82.49212,-184.25424 184.25424,-184.25424 101.76212,0 184.25424,82.49212 184.25424,184.25424 z" /></g><g
             id="g42"><path
               id="path44"
               style="fill:none;stroke:#000000;stroke-width:0.79701;stroke-linecap:butt;stroke-linejoin:miter;stroke-miterlimit:10;stroke-dasharray:none;stroke-opacity:1"
               d="m 226.77448,0 c 0,125.24568 -101.5288,226.77448 -226.77448,226.77448 -125.24568,0 -226.77448,-101.5288 -226.77448,-226.77448 0,-125.24568 101.5288,-226.77448 226.77448,-226.77448 125.24568,0 226.77448,101.5288 226.77448,226.77448 z" /></g><g
             id="g46"><path
               id="path48"
               style="fill:none;stroke:#000000;stroke-width:0.79701;stroke-linecap:butt;stroke-linejoin:miter;stroke-miterlimit:10;stroke-dasharray:none;stroke-opacity:1"
               d="M 277.7988,0 C 277.7988,153.42601 153.42601,277.7988 0,277.7988 -153.42601,277.7988 -277.7988,153.42601 -277.7988,0 c 0,-153.42601 124.37279,-277.7988 277.7988,-277.7988 153.42601,0 277.7988,124.37279 277.7988,277.7988 z" /></g><g
             id="g50"><path
               id="path52"
               style="fill:none;stroke:#000000;stroke-width:0.79701;stroke-linecap:butt;stroke-linejoin:miter;stroke-miterlimit:10;stroke-dasharray:none;stroke-opacity:1"
               d="M 368.50851,0 C 368.50851,203.52425 203.52425,368.50851 0,368.50851 -203.52425,368.50851 -368.50851,203.52425 -368.50851,0 c 0,-203.52425 164.98426,-368.50851 368.50851,-368.50851 203.52425,0 368.50851,164.98426 368.50851,368.50851 z" /></g><g
             id="g54"><path
               id="path56"
               style="fill:#808080;fill-opacity:1;fill-rule:nonzero;stroke:#808080;stroke-width:0.3985;stroke-linecap:butt;stroke-linejoin:miter;stroke-miterlimit:10;stroke-dasharray:none;stroke-opacity:1"
               d="m -6.39592,-56.1417 c 0,0.82535 -0.66907,1.49442 -1.49442,1.49442 -0.82534,0 -1.49441,-0.66907 -1.49441,-1.49442 0,-0.82534 0.66907,-1.49441 1.49441,-1.49441 0.82535,0 1.49442,0.66907 1.49442,1.49441 z" /></g><g
             id="g58"><path
               id="path60"
               style="fill:#bf8040;fill-opacity:1;fill-rule:nonzero;stroke:#bf8040;stroke-width:0.3985;stroke-linecap:butt;stroke-linejoin:miter;stroke-miterlimit:10;stroke-dasharray:none;stroke-opacity:1"
               d="m -30.23917,78.27985 c 0,1.65071 -1.33812,2.98883 -2.98883,2.98883 -1.6507,0 -2.98883,-1.33812 -2.98883,-2.98883 0,-1.65071 1.33813,-2.98883 2.98883,-2.98883 1.65071,0 2.98883,1.33812 2.98883,2.98883 z" /></g><g
             id="g62"><path
               id="path64"
               style="fill:#0000ff;fill-opacity:1;fill-rule:nonzero;stroke:#0000ff;stroke-width:0.3985;stroke-linecap:butt;stroke-linejoin:miter;stroke-miterlimit:10;stroke-dasharray:none;stroke-opacity:1"
               d="m 75.8732,86.85881 c 0,1.65069 -1.33812,2.98883 -2.98883,2.98883 -1.6507,0 -2.98883,-1.33814 -2.98883,-2.98883 0,-1.65071 1.33813,-2.98883 2.98883,-2.98883 1.65071,0 2.98883,1.33812 2.98883,2.98883 z" /></g><g
             id="g66"><path
               id="path68"
               style="fill:#ff0000;fill-opacity:1;fill-rule:nonzero;stroke:#ff0000;stroke-width:0.3985;stroke-linecap:butt;stroke-linejoin:miter;stroke-miterlimit:10;stroke-dasharray:none;stroke-opacity:1"
               d="m 121.74269,-86.64124 c 0,1.37558 -1.11511,2.4907 -2.49069,2.4907 -1.37558,0 -2.4907,-1.11512 -2.4907,-2.4907 0,-1.37558 1.11512,-2.49069 2.4907,-2.49069 1.37558,0 2.49069,1.11511 2.49069,2.49069 z" /></g><g
             id="g70"><path
               id="path72"
               style="fill:#bf8040;fill-opacity:1;fill-rule:nonzero;stroke:#bf8040;stroke-width:0.3985;stroke-linecap:butt;stroke-linejoin:miter;stroke-miterlimit:10;stroke-dasharray:none;stroke-opacity:1"
               d="m -172.91946,22.4552 c 0,5.50235 -4.46042,9.96277 -9.96277,9.96277 -5.50237,0 -9.96277,-4.46042 -9.96277,-9.96277 0,-5.50235 4.4604,-9.96277 9.96277,-9.96277 5.50235,0 9.96277,4.46042 9.96277,9.96277 z" /></g><g
             id="g74"><path
               id="path76"
               style="fill:#ff8000;fill-opacity:1;fill-rule:nonzero;stroke:#ff8000;stroke-width:0.3985;stroke-linecap:butt;stroke-linejoin:miter;stroke-miterlimit:10;stroke-dasharray:none;stroke-opacity:1"
               d="m 7.97021,226.77448 c 0,4.40188 -3.56834,7.97021 -7.97021,7.97021 -4.40187,0 -7.97021,-3.56833 -7.97021,-7.97021 0,-4.40189 3.56834,-7.97022 7.97021,-7.97022 4.40187,0 7.97021,3.56833 7.97021,7.97022 z" /></g><g
             id="g78"><path
               id="path80"
               style="fill:#00adef;fill-opacity:1;fill-rule:nonzero;stroke:#00adef;stroke-width:0.3985;stroke-linecap:butt;stroke-linejoin:miter;stroke-miterlimit:10;stroke-dasharray:none;stroke-opacity:1"
               d="m 282.39827,-14.53932 c 0,2.75119 -2.23021,4.98138 -4.98138,4.98138 -2.75118,0 -4.98139,-2.23019 -4.98139,-4.98138 0,-2.75118 2.23021,-4.98138 4.98139,-4.98138 2.75117,0 4.98138,2.2302 4.98138,4.98138 z" /></g><g
             id="g82"><path
               id="path84"
               style="fill:#0000ff;fill-opacity:1;fill-rule:nonzero;stroke:#0000ff;stroke-width:0.3985;stroke-linecap:butt;stroke-linejoin:miter;stroke-miterlimit:10;stroke-dasharray:none;stroke-opacity:1"
               d="m -246.34393,-269.51007 c 0,2.75117 -2.23021,4.98138 -4.98139,4.98138 -2.75117,0 -4.98138,-2.23021 -4.98138,-4.98138 0,-2.75118 2.23021,-4.98139 4.98138,-4.98139 2.75118,0 4.98139,2.23021 4.98139,4.98139 z" /></g></g></g></g></g></svg>